<mxfile host="65bd71144e">
    <diagram id="zVhPO5PnShrloMw9hw-H" name="Page-1">
        <mxGraphModel dx="4594" dy="2633" grid="1" gridSize="10" guides="1" tooltips="1" connect="1" arrows="1" fold="1" page="1" pageScale="1" pageWidth="827" pageHeight="1169" background="none" math="0" shadow="0">
            <root>
                <mxCell id="0"/>
                <mxCell id="1" parent="0"/>
                <mxCell id="4" style="edgeStyle=orthogonalEdgeStyle;rounded=0;orthogonalLoop=1;jettySize=auto;html=1;exitX=0.5;exitY=1;exitDx=0;exitDy=0;entryX=0.5;entryY=0;entryDx=0;entryDy=0;fontColor=#ffffff;fillColor=#1ba1e2;strokeWidth=3;endArrow=block;endFill=1;strokeColor=#1FB3E0;fontSize=12;" edge="1" parent="1" source="2" target="3">
                    <mxGeometry relative="1" as="geometry"/>
                </mxCell>
                <mxCell id="2" value="&lt;font face=&quot;Courier New&quot; style=&quot;line-height: 120%; font-size: 12px;&quot;&gt;Start&lt;/font&gt;" style="rounded=1;whiteSpace=wrap;html=1;fillColor=#0050ef;fontColor=#ffffff;arcSize=40;strokeColor=#001DBC;horizontal=1;verticalAlign=middle;labelPosition=center;verticalLabelPosition=middle;align=center;fontSize=12;" vertex="1" parent="1">
                    <mxGeometry x="-191.32999999999998" y="90" width="120" height="40" as="geometry"/>
                </mxCell>
                <mxCell id="9" style="edgeStyle=orthogonalEdgeStyle;rounded=0;orthogonalLoop=1;jettySize=auto;html=1;exitX=0.5;exitY=1;exitDx=0;exitDy=0;entryX=0.5;entryY=0;entryDx=0;entryDy=0;fontFamily=Courier New;fontColor=#ffffff;endArrow=block;endFill=1;strokeColor=#1FB3E0;strokeWidth=3;fillColor=#1ba1e2;fontSize=12;" edge="1" parent="1" source="3" target="5">
                    <mxGeometry relative="1" as="geometry"/>
                </mxCell>
                <mxCell id="3" value="&lt;font face=&quot;Courier New&quot; style=&quot;font-size: 12px;&quot;&gt;Retrieve API token&lt;/font&gt;" style="rounded=0;whiteSpace=wrap;html=1;verticalAlign=middle;fillColor=#6a00ff;fontColor=#ffffff;strokeColor=none;fontSize=12;" vertex="1" parent="1">
                    <mxGeometry x="-191.32999999999998" y="160" width="120" height="60" as="geometry"/>
                </mxCell>
                <mxCell id="12" value="False" style="edgeStyle=orthogonalEdgeStyle;rounded=0;orthogonalLoop=1;jettySize=auto;html=1;exitX=1;exitY=0.5;exitDx=0;exitDy=0;entryX=0;entryY=0.5;entryDx=0;entryDy=0;fontFamily=Courier New;fontColor=#ffffff;endArrow=block;endFill=1;strokeColor=#1FB3E0;strokeWidth=3;fillColor=#1ba1e2;verticalAlign=middle;fontSize=12;align=center;" edge="1" parent="1" source="5" target="11">
                    <mxGeometry relative="1" as="geometry"/>
                </mxCell>
                <mxCell id="14" value="True" style="edgeStyle=orthogonalEdgeStyle;rounded=0;orthogonalLoop=1;jettySize=auto;html=1;exitX=0;exitY=0.5;exitDx=0;exitDy=0;fontSize=12;fontColor=#ffffff;endArrow=block;endFill=1;strokeColor=#1FB3E0;strokeWidth=3;fillColor=#1ba1e2;verticalAlign=middle;align=center;fontFamily=Courier New;spacing=5;" edge="1" parent="1" source="5">
                    <mxGeometry relative="1" as="geometry">
                        <mxPoint x="-130.32999999999998" y="358" as="targetPoint"/>
                    </mxGeometry>
                </mxCell>
                <mxCell id="269" value="True" style="edgeStyle=orthogonalEdgeStyle;rounded=0;jumpStyle=gap;jumpSize=10;orthogonalLoop=1;jettySize=auto;html=1;exitX=1;exitY=1;exitDx=0;exitDy=0;entryX=1;entryY=0.25;entryDx=0;entryDy=0;dashed=1;fontFamily=Courier New;fontSize=12;fontColor=#ffffff;startArrow=none;startFill=0;endArrow=block;endFill=1;strokeColor=#1FB3E0;strokeWidth=3;fillColor=#1ba1e2;align=center;" edge="1" parent="1" source="5" target="68">
                    <mxGeometry x="-0.7975" relative="1" as="geometry">
                        <Array as="points">
                            <mxPoint x="-103.32999999999998" y="320"/>
                            <mxPoint x="119.67000000000002" y="320"/>
                            <mxPoint x="119.67000000000002" y="1165"/>
                        </Array>
                        <mxPoint as="offset"/>
                    </mxGeometry>
                </mxCell>
                <mxCell id="5" value="Validate" style="rhombus;whiteSpace=wrap;html=1;rounded=0;fontColor=#ffffff;fillColor=#6a00ff;strokeColor=none;fontFamily=Courier New;fontSize=12;" vertex="1" parent="1">
                    <mxGeometry x="-186.32999999999998" y="250" width="110" height="60" as="geometry"/>
                </mxCell>
                <mxCell id="11" value="&lt;font face=&quot;Courier New&quot; style=&quot;font-size: 12px&quot;&gt;Terminate with error&lt;/font&gt;" style="rounded=1;whiteSpace=wrap;html=1;fillColor=#a20025;fontColor=#ffffff;arcSize=40;strokeColor=#6F0000;horizontal=1;verticalAlign=middle;labelPosition=center;verticalLabelPosition=middle;align=center;fontSize=12;" vertex="1" parent="1">
                    <mxGeometry x="29.670000000000016" y="260" width="120" height="40" as="geometry"/>
                </mxCell>
                <mxCell id="17" style="edgeStyle=orthogonalEdgeStyle;rounded=0;orthogonalLoop=1;jettySize=auto;html=1;exitX=0.5;exitY=1;exitDx=0;exitDy=0;entryX=0.5;entryY=0;entryDx=0;entryDy=0;fontSize=12;fontColor=#ffffff;endArrow=block;endFill=1;strokeColor=#1FB3E0;strokeWidth=3;fillColor=#1ba1e2;verticalAlign=bottom;" edge="1" parent="1" source="13" target="15">
                    <mxGeometry relative="1" as="geometry"/>
                </mxCell>
                <mxCell id="13" value="User input:&lt;br&gt;user_name" style="shape=parallelogram;perimeter=parallelogramPerimeter;whiteSpace=wrap;html=1;fixedSize=1;rounded=0;fontFamily=Courier New;fontSize=12;fontColor=#ffffff;strokeWidth=0;fillColor=#6a00ff;" vertex="1" parent="1">
                    <mxGeometry x="-190.32999999999998" y="360" width="120" height="50" as="geometry"/>
                </mxCell>
                <mxCell id="18" value="False" style="edgeStyle=orthogonalEdgeStyle;rounded=0;orthogonalLoop=1;jettySize=auto;html=1;exitX=1;exitY=0;exitDx=0;exitDy=0;fontSize=12;fontColor=#ffffff;endArrow=block;endFill=1;strokeColor=#1FB3E0;strokeWidth=3;fillColor=#1ba1e2;verticalAlign=middle;align=center;spacingRight=2;entryX=1;entryY=0.5;entryDx=0;entryDy=0;fontFamily=Courier New;spacing=5;" edge="1" parent="1" source="15" target="13">
                    <mxGeometry relative="1" as="geometry">
                        <mxPoint x="-80.32999999999998" y="385" as="targetPoint"/>
                        <Array as="points">
                            <mxPoint x="-102.32999999999998" y="470"/>
                            <mxPoint x="19.670000000000016" y="470"/>
                            <mxPoint x="19.670000000000016" y="385"/>
                        </Array>
                    </mxGeometry>
                </mxCell>
                <mxCell id="23" value="True" style="edgeStyle=orthogonalEdgeStyle;rounded=0;orthogonalLoop=1;jettySize=auto;html=1;exitX=1;exitY=0.5;exitDx=0;exitDy=0;fontSize=12;fontColor=#ffffff;endArrow=block;endFill=1;strokeColor=#1FB3E0;strokeWidth=3;fillColor=#1ba1e2;align=center;verticalAlign=middle;startArrow=none;entryX=0.5;entryY=0;entryDx=0;entryDy=0;fontFamily=Courier New;spacing=5;" edge="1" parent="1" source="25" target="22">
                    <mxGeometry relative="1" as="geometry">
                        <mxPoint x="-120.32999999999998" y="570" as="targetPoint"/>
                    </mxGeometry>
                </mxCell>
                <mxCell id="53" style="edgeStyle=orthogonalEdgeStyle;rounded=0;orthogonalLoop=1;jettySize=auto;html=1;exitX=0;exitY=0.5;exitDx=0;exitDy=0;entryX=0;entryY=0.5;entryDx=0;entryDy=0;fontSize=12;fontColor=#FFFFFF;endArrow=none;endFill=0;strokeColor=#1FB3E0;strokeWidth=3;fillColor=#1ba1e2;align=center;verticalAlign=middle;" edge="1" parent="1" source="15" target="25">
                    <mxGeometry relative="1" as="geometry">
                        <Array as="points">
                            <mxPoint x="-270.33" y="470"/>
                            <mxPoint x="-270.33" y="520"/>
                        </Array>
                    </mxGeometry>
                </mxCell>
                <mxCell id="15" value="Validate" style="rhombus;whiteSpace=wrap;html=1;rounded=0;fontColor=#ffffff;fillColor=#6a00ff;strokeColor=none;fontFamily=Courier New;fontSize=12;" vertex="1" parent="1">
                    <mxGeometry x="-185.32999999999998" y="440" width="110" height="60" as="geometry"/>
                </mxCell>
                <mxCell id="31" style="edgeStyle=orthogonalEdgeStyle;rounded=0;orthogonalLoop=1;jettySize=auto;html=1;exitX=0.5;exitY=1;exitDx=0;exitDy=0;fontSize=12;fontColor=#000033;endArrow=block;endFill=1;strokeColor=#1FB3E0;strokeWidth=3;fillColor=#1ba1e2;align=right;verticalAlign=bottom;entryX=0.5;entryY=0;entryDx=0;entryDy=0;" edge="1" parent="1" source="22" target="48">
                    <mxGeometry relative="1" as="geometry">
                        <mxPoint x="-131.32999999999998" y="645" as="targetPoint"/>
                    </mxGeometry>
                </mxCell>
                <mxCell id="22" value="User input:&lt;br&gt;show rules?" style="shape=parallelogram;perimeter=parallelogramPerimeter;whiteSpace=wrap;html=1;fixedSize=1;rounded=0;fontFamily=Courier New;fontSize=12;fontColor=#ffffff;strokeWidth=0;fillColor=#6a00ff;" vertex="1" parent="1">
                    <mxGeometry x="-191.32999999999998" y="550" width="120" height="50" as="geometry"/>
                </mxCell>
                <mxCell id="25" value="user_name" style="text;html=1;strokeColor=#6c8ebf;fillColor=#dae8fc;align=center;verticalAlign=middle;whiteSpace=wrap;rounded=0;fontFamily=Courier New;fontSize=12;gradientColor=#7ea6e0;fontColor=#000033;" vertex="1" parent="1">
                    <mxGeometry x="-261.33" y="510" width="81" height="20" as="geometry"/>
                </mxCell>
                <mxCell id="35" value="yes" style="edgeStyle=orthogonalEdgeStyle;rounded=0;orthogonalLoop=1;jettySize=auto;html=1;exitX=0;exitY=0.5;exitDx=0;exitDy=0;entryX=0.5;entryY=0;entryDx=0;entryDy=0;fontSize=12;endArrow=block;endFill=1;strokeColor=#1FB3E0;strokeWidth=3;fillColor=#1ba1e2;align=center;verticalAlign=middle;fontColor=#FFFFFF;" edge="1" parent="1" source="30" target="34">
                    <mxGeometry x="-0.1346" relative="1" as="geometry">
                        <mxPoint as="offset"/>
                    </mxGeometry>
                </mxCell>
                <mxCell id="37" value="no" style="edgeStyle=orthogonalEdgeStyle;rounded=0;orthogonalLoop=1;jettySize=auto;html=1;exitX=1;exitY=0.5;exitDx=0;exitDy=0;entryX=0.5;entryY=0;entryDx=0;entryDy=0;fontSize=12;fontColor=#FFFFFF;endArrow=block;endFill=1;strokeColor=#1FB3E0;strokeWidth=3;fillColor=#1ba1e2;align=center;verticalAlign=middle;fontFamily=Courier New;spacing=5;" edge="1" parent="1" source="30" target="36">
                    <mxGeometry x="-0.3143" y="5" relative="1" as="geometry">
                        <Array as="points">
                            <mxPoint x="-45.329999999999984" y="775"/>
                            <mxPoint x="-45.329999999999984" y="860"/>
                            <mxPoint x="-130.32999999999998" y="860"/>
                        </Array>
                        <mxPoint as="offset"/>
                    </mxGeometry>
                </mxCell>
                <mxCell id="30" value="y/n" style="rhombus;whiteSpace=wrap;html=1;rounded=0;fontColor=#ffffff;fillColor=#6a00ff;strokeColor=none;fontFamily=Courier New;fontSize=12;" vertex="1" parent="1">
                    <mxGeometry x="-186.32999999999998" y="745" width="110" height="60" as="geometry"/>
                </mxCell>
                <mxCell id="65" style="edgeStyle=orthogonalEdgeStyle;rounded=0;orthogonalLoop=1;jettySize=auto;html=1;exitX=0.5;exitY=1;exitDx=0;exitDy=0;entryX=0;entryY=0.5;entryDx=0;entryDy=0;fontFamily=Courier New;fontSize=12;fontColor=#ffffff;startArrow=none;startFill=0;endArrow=block;endFill=1;strokeColor=#1FB3E0;strokeWidth=3;fillColor=#1ba1e2;align=center;" edge="1" parent="1" source="34" target="63">
                    <mxGeometry relative="1" as="geometry">
                        <Array as="points">
                            <mxPoint x="-321.33" y="860"/>
                        </Array>
                    </mxGeometry>
                </mxCell>
                <mxCell id="34" value="Print:&lt;br&gt;rules" style="shape=parallelogram;perimeter=parallelogramPerimeter;whiteSpace=wrap;html=1;fixedSize=1;rounded=0;fontFamily=Courier New;fontSize=12;fontColor=#ffffff;strokeWidth=0;fillColor=#3B008F;" vertex="1" parent="1">
                    <mxGeometry x="-381.33" y="800" width="120" height="50" as="geometry"/>
                </mxCell>
                <mxCell id="40" style="edgeStyle=orthogonalEdgeStyle;rounded=0;orthogonalLoop=1;jettySize=auto;html=1;exitX=0.5;exitY=1;exitDx=0;exitDy=0;entryX=0.5;entryY=0;entryDx=0;entryDy=0;fontSize=12;fontColor=#FFFFFF;endArrow=block;endFill=1;strokeColor=#1FB3E0;strokeWidth=3;fillColor=#1ba1e2;align=left;verticalAlign=bottom;" edge="1" parent="1" source="36" target="46">
                    <mxGeometry relative="1" as="geometry"/>
                </mxCell>
                <mxCell id="36" value="User input:&lt;br&gt;check&lt;br&gt;keywords?" style="shape=parallelogram;perimeter=parallelogramPerimeter;whiteSpace=wrap;html=1;fixedSize=1;rounded=0;fontFamily=Courier New;fontSize=12;fontColor=#ffffff;strokeWidth=0;fillColor=#6a00ff;" vertex="1" parent="1">
                    <mxGeometry x="-190.32999999999998" y="880" width="120" height="50" as="geometry"/>
                </mxCell>
                <mxCell id="42" value="yes" style="edgeStyle=orthogonalEdgeStyle;rounded=0;orthogonalLoop=1;jettySize=auto;html=1;exitX=0;exitY=0.5;exitDx=0;exitDy=0;entryX=1;entryY=0.5;entryDx=0;entryDy=0;fontSize=12;fontColor=#FFFFFF;endArrow=block;endFill=1;strokeColor=#1FB3E0;strokeWidth=3;fillColor=#1ba1e2;align=left;verticalAlign=middle;spacing=5;fontFamily=Courier New;" edge="1" parent="1" source="39" target="57">
                    <mxGeometry relative="1" as="geometry"/>
                </mxCell>
                <mxCell id="69" value="no" style="edgeStyle=orthogonalEdgeStyle;rounded=0;orthogonalLoop=1;jettySize=auto;html=1;exitX=1;exitY=0.5;exitDx=0;exitDy=0;entryX=0.5;entryY=0;entryDx=0;entryDy=0;fontFamily=Courier New;fontSize=12;fontColor=#ffffff;startArrow=none;startFill=0;endArrow=block;endFill=1;strokeColor=#1FB3E0;strokeWidth=3;fillColor=#1ba1e2;align=center;" edge="1" parent="1" source="39" target="68">
                    <mxGeometry relative="1" as="geometry"/>
                </mxCell>
                <mxCell id="39" value="y/n" style="rhombus;whiteSpace=wrap;html=1;rounded=0;fontColor=#ffffff;fillColor=#6a00ff;strokeColor=none;fontFamily=Courier New;fontSize=12;" vertex="1" parent="1">
                    <mxGeometry x="-185.32999999999998" y="1040" width="110" height="60" as="geometry"/>
                </mxCell>
                <mxCell id="45" value="any" style="edgeStyle=orthogonalEdgeStyle;rounded=0;orthogonalLoop=1;jettySize=auto;html=1;exitX=0.5;exitY=1;exitDx=0;exitDy=0;entryX=0.5;entryY=0;entryDx=0;entryDy=0;fontSize=12;fontColor=#FFFFFF;endArrow=block;endFill=1;strokeColor=#1FB3E0;strokeWidth=3;fillColor=#1ba1e2;align=center;verticalAlign=middle;spacing=5;spacingLeft=0;fontFamily=Courier New;" edge="1" parent="1" source="41" target="44">
                    <mxGeometry x="-0.0435" relative="1" as="geometry">
                        <mxPoint as="offset"/>
                    </mxGeometry>
                </mxCell>
                <mxCell id="41" value="User input:&lt;br&gt;which&lt;br&gt;keyword?" style="shape=parallelogram;perimeter=parallelogramPerimeter;whiteSpace=wrap;html=1;fixedSize=1;rounded=0;fontFamily=Courier New;fontSize=12;fontColor=#ffffff;strokeWidth=0;fillColor=#6a00ff;" vertex="1" parent="1">
                    <mxGeometry x="-415.33" y="1100" width="120" height="50" as="geometry"/>
                </mxCell>
                <mxCell id="56" value="False" style="edgeStyle=orthogonalEdgeStyle;rounded=0;orthogonalLoop=1;jettySize=auto;html=1;exitX=1;exitY=0.5;exitDx=0;exitDy=0;fontFamily=Courier New;fontSize=12;fontColor=#ffffff;endArrow=block;endFill=1;strokeColor=#1FB3E0;strokeWidth=3;fillColor=#1ba1e2;align=center;entryX=0.5;entryY=1;entryDx=0;entryDy=0;" edge="1" parent="1" source="44" target="57">
                    <mxGeometry relative="1" as="geometry">
                        <mxPoint x="-285.33" y="1070" as="targetPoint"/>
                        <Array as="points">
                            <mxPoint x="-285.33" y="1290"/>
                        </Array>
                    </mxGeometry>
                </mxCell>
                <mxCell id="61" value="True" style="edgeStyle=orthogonalEdgeStyle;rounded=0;orthogonalLoop=1;jettySize=auto;html=1;exitX=0;exitY=0.5;exitDx=0;exitDy=0;entryX=0.5;entryY=0;entryDx=0;entryDy=0;fontFamily=Courier New;fontSize=12;fontColor=#ffffff;startArrow=none;startFill=0;endArrow=block;endFill=1;strokeColor=#1FB3E0;strokeWidth=3;fillColor=#1ba1e2;align=center;" edge="1" parent="1" source="44" target="60">
                    <mxGeometry relative="1" as="geometry"/>
                </mxCell>
                <mxCell id="44" value="Validate" style="rhombus;whiteSpace=wrap;html=1;rounded=0;fontColor=#ffffff;fillColor=#6a00ff;strokeColor=none;fontFamily=Courier New;fontSize=12;" vertex="1" parent="1">
                    <mxGeometry x="-410.33" y="1260" width="110" height="60" as="geometry"/>
                </mxCell>
                <mxCell id="47" value="True" style="edgeStyle=orthogonalEdgeStyle;rounded=0;orthogonalLoop=1;jettySize=auto;html=1;exitX=0;exitY=0.5;exitDx=0;exitDy=0;entryX=0.5;entryY=0;entryDx=0;entryDy=0;fontSize=12;fontColor=#FFFFFF;endArrow=block;endFill=1;strokeColor=#1FB3E0;strokeWidth=3;fillColor=#1ba1e2;align=center;verticalAlign=middle;fontFamily=Courier New;spacing=5;" edge="1" parent="1" source="46" target="39">
                    <mxGeometry relative="1" as="geometry">
                        <Array as="points">
                            <mxPoint x="-205.32999999999998" y="980"/>
                            <mxPoint x="-205.32999999999998" y="1020"/>
                            <mxPoint x="-130.32999999999998" y="1020"/>
                        </Array>
                    </mxGeometry>
                </mxCell>
                <mxCell id="55" value="False" style="edgeStyle=orthogonalEdgeStyle;rounded=0;orthogonalLoop=1;jettySize=auto;html=1;exitX=1;exitY=0.5;exitDx=0;exitDy=0;fontSize=12;fontColor=#FFFFFF;endArrow=block;endFill=1;strokeColor=#1FB3E0;strokeWidth=3;fillColor=#1ba1e2;align=center;verticalAlign=middle;fontFamily=Courier New;spacing=5;" edge="1" parent="1" source="46">
                    <mxGeometry relative="1" as="geometry">
                        <mxPoint x="-80.32999999999998" y="905" as="targetPoint"/>
                        <Array as="points">
                            <mxPoint x="-55.329999999999984" y="980"/>
                            <mxPoint x="-55.329999999999984" y="905"/>
                        </Array>
                    </mxGeometry>
                </mxCell>
                <mxCell id="46" value="Validate" style="rhombus;whiteSpace=wrap;html=1;rounded=0;fontColor=#ffffff;fillColor=#6a00ff;strokeColor=none;fontFamily=Courier New;fontSize=12;" vertex="1" parent="1">
                    <mxGeometry x="-185.32999999999998" y="950" width="110" height="60" as="geometry"/>
                </mxCell>
                <mxCell id="49" value="True" style="edgeStyle=orthogonalEdgeStyle;rounded=0;orthogonalLoop=1;jettySize=auto;html=1;exitX=0;exitY=0.5;exitDx=0;exitDy=0;entryX=0.5;entryY=0;entryDx=0;entryDy=0;fontSize=12;fontColor=#FFFFFF;endArrow=block;endFill=1;strokeColor=#1FB3E0;strokeWidth=3;fillColor=#1ba1e2;align=center;verticalAlign=middle;spacing=5;spacingRight=0;fontFamily=Courier New;" edge="1" parent="1" source="48" target="30">
                    <mxGeometry relative="1" as="geometry">
                        <Array as="points">
                            <mxPoint x="-200.32999999999998" y="675"/>
                            <mxPoint x="-200.32999999999998" y="725"/>
                            <mxPoint x="-131.32999999999998" y="725"/>
                        </Array>
                    </mxGeometry>
                </mxCell>
                <mxCell id="50" value="False" style="edgeStyle=orthogonalEdgeStyle;rounded=0;orthogonalLoop=1;jettySize=auto;html=1;exitX=1;exitY=0.5;exitDx=0;exitDy=0;entryX=1;entryY=0.5;entryDx=0;entryDy=0;fontSize=12;fontColor=#FFFFFF;endArrow=block;endFill=1;strokeColor=#1FB3E0;strokeWidth=3;fillColor=#1ba1e2;align=center;verticalAlign=middle;spacing=5;fontFamily=Courier New;" edge="1" parent="1" source="48" target="22">
                    <mxGeometry relative="1" as="geometry">
                        <Array as="points">
                            <mxPoint x="-41.329999999999984" y="675"/>
                            <mxPoint x="-41.329999999999984" y="575"/>
                        </Array>
                    </mxGeometry>
                </mxCell>
                <mxCell id="48" value="Validate" style="rhombus;whiteSpace=wrap;html=1;rounded=0;fontColor=#ffffff;fillColor=#6a00ff;strokeColor=none;fontFamily=Courier New;fontSize=12;" vertex="1" parent="1">
                    <mxGeometry x="-186.32999999999998" y="645" width="110" height="60" as="geometry"/>
                </mxCell>
                <mxCell id="58" style="edgeStyle=orthogonalEdgeStyle;rounded=0;orthogonalLoop=1;jettySize=auto;html=1;exitX=0;exitY=0.5;exitDx=0;exitDy=0;entryX=0.5;entryY=0;entryDx=0;entryDy=0;fontFamily=Courier New;fontSize=12;fontColor=#ffffff;startArrow=ERmany;startFill=0;endArrow=block;endFill=1;strokeColor=#1FB3E0;strokeWidth=3;fillColor=#1ba1e2;align=center;" edge="1" parent="1" source="57" target="41">
                    <mxGeometry relative="1" as="geometry"/>
                </mxCell>
                <mxCell id="57" value="" style="ellipse;whiteSpace=wrap;html=1;aspect=fixed;rounded=0;shadow=0;glass=0;sketch=0;fontFamily=Courier New;fontSize=12;fontColor=#ffffff;strokeColor=#00CCCC;strokeWidth=2;fillColor=#6a00ff;align=center;" vertex="1" parent="1">
                    <mxGeometry x="-295.33" y="1060" width="20" height="20" as="geometry"/>
                </mxCell>
                <mxCell id="66" style="edgeStyle=orthogonalEdgeStyle;rounded=0;orthogonalLoop=1;jettySize=auto;html=1;exitX=0.5;exitY=1;exitDx=0;exitDy=0;entryX=0.5;entryY=1;entryDx=0;entryDy=0;fontFamily=Courier New;fontSize=12;fontColor=#ffffff;startArrow=none;startFill=0;endArrow=block;endFill=1;strokeColor=#1FB3E0;strokeWidth=3;fillColor=#1ba1e2;align=center;fixDash=0;" edge="1" parent="1" source="60" target="63">
                    <mxGeometry relative="1" as="geometry">
                        <Array as="points">
                            <mxPoint x="-355.33" y="1440"/>
                            <mxPoint x="-450.33" y="1440"/>
                            <mxPoint x="-450.33" y="920"/>
                            <mxPoint x="-230.32999999999998" y="920"/>
                        </Array>
                    </mxGeometry>
                </mxCell>
                <mxCell id="60" value="Print:&lt;br&gt;keyword&lt;br&gt;description" style="shape=parallelogram;perimeter=parallelogramPerimeter;whiteSpace=wrap;html=1;fixedSize=1;rounded=0;fontFamily=Courier New;fontSize=12;fontColor=#ffffff;strokeWidth=0;fillColor=#3B008F;" vertex="1" parent="1">
                    <mxGeometry x="-415.33" y="1370" width="120" height="50" as="geometry"/>
                </mxCell>
                <mxCell id="64" style="edgeStyle=orthogonalEdgeStyle;rounded=0;orthogonalLoop=1;jettySize=auto;html=1;entryX=0.5;entryY=0;entryDx=0;entryDy=0;fontFamily=Courier New;fontSize=12;fontColor=#ffffff;startArrow=ERmany;startFill=0;endArrow=block;endFill=1;strokeColor=#1FB3E0;strokeWidth=3;fillColor=#1ba1e2;align=center;" edge="1" parent="1" source="63" target="36">
                    <mxGeometry relative="1" as="geometry">
                        <Array as="points">
                            <mxPoint x="-130.32999999999998" y="860"/>
                        </Array>
                    </mxGeometry>
                </mxCell>
                <mxCell id="63" value="" style="ellipse;whiteSpace=wrap;html=1;aspect=fixed;rounded=0;shadow=0;glass=0;sketch=0;fontFamily=Courier New;fontSize=12;fontColor=#ffffff;strokeColor=#00CCCC;strokeWidth=2;fillColor=#6a00ff;align=center;" vertex="1" parent="1">
                    <mxGeometry x="-240.32999999999998" y="850" width="20" height="20" as="geometry"/>
                </mxCell>
                <mxCell id="81" style="edgeStyle=orthogonalEdgeStyle;rounded=0;orthogonalLoop=1;jettySize=auto;html=1;exitX=0.5;exitY=1;exitDx=0;exitDy=0;entryX=0.5;entryY=0;entryDx=0;entryDy=0;fontFamily=Courier New;fontSize=12;fontColor=#ffffff;startArrow=none;startFill=0;endArrow=block;endFill=1;strokeColor=#1FB3E0;strokeWidth=3;fillColor=#1ba1e2;align=center;" edge="1" parent="1" source="68" target="78">
                    <mxGeometry relative="1" as="geometry"/>
                </mxCell>
                <mxCell id="68" value="&lt;font face=&quot;Courier New&quot; style=&quot;font-size: 12px&quot;&gt;Retrieve question data&lt;/font&gt;" style="rounded=0;whiteSpace=wrap;html=1;verticalAlign=middle;fillColor=#6a00ff;fontColor=#ffffff;strokeColor=none;fontSize=12;" vertex="1" parent="1">
                    <mxGeometry x="-190.32999999999998" y="1150" width="120" height="60" as="geometry"/>
                </mxCell>
                <mxCell id="117" style="edgeStyle=orthogonalEdgeStyle;rounded=0;orthogonalLoop=1;jettySize=auto;html=1;exitX=0.5;exitY=1;exitDx=0;exitDy=0;entryX=0.5;entryY=0;entryDx=0;entryDy=0;fontFamily=Courier New;fontSize=12;fontColor=#ffffff;startArrow=none;startFill=0;endArrow=block;endFill=1;strokeColor=#1FB3E0;strokeWidth=3;fillColor=#1ba1e2;align=center;" edge="1" parent="1" source="72" target="115">
                    <mxGeometry relative="1" as="geometry"/>
                </mxCell>
                <mxCell id="72" value="Print:&lt;br&gt;remaining&lt;br&gt;life lines" style="shape=parallelogram;perimeter=parallelogramPerimeter;whiteSpace=wrap;html=1;fixedSize=1;rounded=0;fontFamily=Courier New;fontSize=12;fontColor=#ffffff;strokeWidth=0;fillColor=#3B008F;" vertex="1" parent="1">
                    <mxGeometry x="-190.32999999999998" y="1444" width="120" height="50" as="geometry"/>
                </mxCell>
                <mxCell id="79" value="False" style="edgeStyle=orthogonalEdgeStyle;rounded=0;orthogonalLoop=1;jettySize=auto;html=1;exitX=1;exitY=0.5;exitDx=0;exitDy=0;fontFamily=Courier New;fontSize=12;fontColor=#ffffff;startArrow=none;startFill=0;endArrow=block;endFill=1;strokeColor=#1FB3E0;strokeWidth=3;fillColor=#1ba1e2;align=center;entryX=0;entryY=0.5;entryDx=0;entryDy=0;" edge="1" parent="1" source="78" target="80">
                    <mxGeometry relative="1" as="geometry">
                        <mxPoint x="-20.329999999999984" y="1270" as="targetPoint"/>
                    </mxGeometry>
                </mxCell>
                <mxCell id="83" style="edgeStyle=orthogonalEdgeStyle;rounded=0;orthogonalLoop=1;jettySize=auto;html=1;exitX=0;exitY=0.5;exitDx=0;exitDy=0;entryX=0.5;entryY=0;entryDx=0;entryDy=0;fontFamily=Courier New;fontSize=12;fontColor=#ffffff;startArrow=none;startFill=0;endArrow=block;endFill=1;strokeColor=#1FB3E0;strokeWidth=3;fillColor=#1ba1e2;align=center;" edge="1" parent="1" source="78" target="82">
                    <mxGeometry relative="1" as="geometry"/>
                </mxCell>
                <mxCell id="78" value="Validate" style="rhombus;whiteSpace=wrap;html=1;rounded=0;fontColor=#ffffff;fillColor=#6a00ff;strokeColor=none;fontFamily=Courier New;fontSize=12;shadow=0;glass=0;sketch=0;align=center;" vertex="1" parent="1">
                    <mxGeometry x="-186.32999999999998" y="1240" width="110" height="60" as="geometry"/>
                </mxCell>
                <mxCell id="80" value="&lt;font face=&quot;Courier New&quot; style=&quot;font-size: 12px&quot;&gt;Terminate with error&lt;/font&gt;" style="rounded=1;whiteSpace=wrap;html=1;fillColor=#a20025;fontColor=#ffffff;arcSize=40;strokeColor=#6F0000;horizontal=1;verticalAlign=middle;labelPosition=center;verticalLabelPosition=middle;align=center;fontSize=12;shadow=0;glass=0;sketch=0;fontFamily=Courier New;" vertex="1" parent="1">
                    <mxGeometry x="29.670000000000016" y="1250" width="120" height="40" as="geometry"/>
                </mxCell>
                <mxCell id="89" style="edgeStyle=orthogonalEdgeStyle;rounded=0;orthogonalLoop=1;jettySize=auto;html=1;exitX=0.5;exitY=1;exitDx=0;exitDy=0;entryX=0.5;entryY=0;entryDx=0;entryDy=0;fontFamily=Courier New;fontSize=12;fontColor=#ffffff;startArrow=none;startFill=0;endArrow=block;endFill=1;strokeColor=#1FB3E0;strokeWidth=3;fillColor=#1ba1e2;align=center;" edge="1" parent="1" source="82" target="72">
                    <mxGeometry relative="1" as="geometry"/>
                </mxCell>
                <mxCell id="82" value="&lt;font face=&quot;Courier New&quot;&gt;Check life&lt;br&gt;lines&lt;br&gt;&lt;/font&gt;" style="rounded=0;whiteSpace=wrap;html=1;verticalAlign=middle;fillColor=#6a00ff;fontColor=#ffffff;strokeColor=none;fontSize=12;" vertex="1" parent="1">
                    <mxGeometry x="-190.32999999999998" y="1340" width="120" height="60" as="geometry"/>
                </mxCell>
                <mxCell id="84" value="Life Lines" style="swimlane;fontStyle=0;childLayout=stackLayout;horizontal=1;startSize=26;horizontalStack=0;resizeParent=1;resizeParentMax=0;resizeLast=0;collapsible=1;marginBottom=0;rounded=0;shadow=0;glass=0;sketch=0;fontFamily=Courier New;fontSize=12;fontColor=#ffffff;strokeColor=#00CCCC;strokeWidth=2;fillColor=#3B008F;align=center;html=1;" vertex="1" parent="1">
                    <mxGeometry x="-600.3299999999999" y="2381" width="140" height="104" as="geometry">
                        <mxRectangle x="570" y="1250" width="100" height="26" as="alternateBounds"/>
                    </mxGeometry>
                </mxCell>
                <mxCell id="85" value="Even" style="text;strokeColor=#3700CC;align=left;verticalAlign=top;spacingLeft=4;spacingRight=4;overflow=hidden;rotatable=0;points=[[0,0.5],[1,0.5]];portConstraint=eastwest;fontColor=#ffffff;fontFamily=Courier New;fillColor=#6A00FF;" vertex="1" parent="84">
                    <mxGeometry y="26" width="140" height="26" as="geometry"/>
                </mxCell>
                <mxCell id="86" value="Review" style="text;strokeColor=#3700CC;align=left;verticalAlign=top;spacingLeft=4;spacingRight=4;overflow=hidden;rotatable=0;points=[[0,0.5],[1,0.5]];portConstraint=eastwest;fontColor=#ffffff;fontFamily=Courier New;fillColor=#6A00FF;" vertex="1" parent="84">
                    <mxGeometry y="52" width="140" height="26" as="geometry"/>
                </mxCell>
                <mxCell id="87" value="Call" style="text;strokeColor=#3700CC;align=left;verticalAlign=top;spacingLeft=4;spacingRight=4;overflow=hidden;rotatable=0;points=[[0,0.5],[1,0.5]];portConstraint=eastwest;fontColor=#ffffff;fontFamily=Courier New;fillColor=#6A00FF;" vertex="1" parent="84">
                    <mxGeometry y="78" width="140" height="26" as="geometry"/>
                </mxCell>
                <mxCell id="133" style="edgeStyle=orthogonalEdgeStyle;rounded=0;orthogonalLoop=1;jettySize=auto;html=1;exitX=0.5;exitY=1;exitDx=0;exitDy=0;entryX=0.5;entryY=0;entryDx=0;entryDy=0;fontFamily=Courier New;fontSize=12;fontColor=#ffffff;startArrow=none;startFill=0;endArrow=block;endFill=1;strokeColor=#1FB3E0;strokeWidth=3;fillColor=#1ba1e2;align=center;" edge="1" parent="1" source="90" target="132">
                    <mxGeometry relative="1" as="geometry"/>
                </mxCell>
                <mxCell id="90" value="Print:&lt;br&gt;question and&lt;br&gt;answers" style="shape=parallelogram;perimeter=parallelogramPerimeter;whiteSpace=wrap;html=1;fixedSize=1;rounded=0;fontFamily=Courier New;fontSize=12;fontColor=#ffffff;strokeWidth=0;fillColor=#3B008F;shadow=0;glass=0;sketch=0;align=center;" vertex="1" parent="1">
                    <mxGeometry x="-190.32999999999998" y="1640" width="120" height="50" as="geometry"/>
                </mxCell>
                <mxCell id="92" value="Question" style="swimlane;fontStyle=0;childLayout=stackLayout;horizontal=1;startSize=26;horizontalStack=0;resizeParent=1;resizeParentMax=0;resizeLast=0;collapsible=1;marginBottom=0;rounded=0;shadow=0;glass=0;sketch=0;fontFamily=Courier New;fontSize=12;fontColor=#ffffff;strokeColor=#00CCCC;strokeWidth=2;fillColor=#3B008F;align=center;html=1;swimlaneLine=1;" vertex="1" parent="1">
                    <mxGeometry x="139.67000000000002" y="1590" width="140" height="130" as="geometry">
                        <mxRectangle x="690" y="1510" width="100" height="26" as="alternateBounds"/>
                    </mxGeometry>
                </mxCell>
                <mxCell id="93" value="Correct Answer" style="text;strokeColor=#3700CC;align=left;verticalAlign=top;spacingLeft=4;spacingRight=4;overflow=hidden;rotatable=0;points=[[0,0.5],[1,0.5]];portConstraint=eastwest;fontColor=#ffffff;fontFamily=Courier New;fillColor=#6A00FF;" vertex="1" parent="92">
                    <mxGeometry y="26" width="140" height="26" as="geometry"/>
                </mxCell>
                <mxCell id="94" value="Incorrect Answer" style="text;align=left;verticalAlign=top;spacingLeft=4;spacingRight=4;overflow=hidden;rotatable=0;points=[[0,0.5],[1,0.5]];portConstraint=eastwest;fontColor=#ffffff;fontFamily=Courier New;fillColor=#6A00FF;strokeColor=#3700CC;" vertex="1" parent="92">
                    <mxGeometry y="52" width="140" height="26" as="geometry"/>
                </mxCell>
                <mxCell id="111" value="Incorrect Answer" style="text;align=left;verticalAlign=top;spacingLeft=4;spacingRight=4;overflow=hidden;rotatable=0;points=[[0,0.5],[1,0.5]];portConstraint=eastwest;rounded=0;shadow=0;glass=0;sketch=0;fontFamily=Courier New;fontSize=12;fontColor=#ffffff;html=1;fillColor=#6A00FF;strokeColor=#3B008F;" vertex="1" parent="92">
                    <mxGeometry y="78" width="140" height="26" as="geometry"/>
                </mxCell>
                <mxCell id="95" value="Incorrect Answer" style="text;strokeColor=#3700CC;align=left;verticalAlign=top;spacingLeft=4;spacingRight=4;overflow=hidden;rotatable=0;points=[[0,0.5],[1,0.5]];portConstraint=eastwest;fontColor=#ffffff;fontFamily=Courier New;fillColor=#6A00FF;" vertex="1" parent="92">
                    <mxGeometry y="104" width="140" height="26" as="geometry"/>
                </mxCell>
                <mxCell id="118" style="edgeStyle=orthogonalEdgeStyle;rounded=0;orthogonalLoop=1;jettySize=auto;html=1;exitX=0.5;exitY=1;exitDx=0;exitDy=0;entryX=0.5;entryY=0;entryDx=0;entryDy=0;fontFamily=Courier New;fontSize=12;fontColor=#ffffff;startArrow=none;startFill=0;endArrow=block;endFill=1;strokeColor=#1FB3E0;strokeWidth=3;fillColor=#1ba1e2;align=center;" edge="1" parent="1" source="115" target="90">
                    <mxGeometry relative="1" as="geometry"/>
                </mxCell>
                <mxCell id="115" value="&lt;font face=&quot;Courier New&quot;&gt;Shuffle answers and assign letter&lt;/font&gt;" style="rounded=0;whiteSpace=wrap;html=1;verticalAlign=middle;fillColor=#6a00ff;fontColor=#ffffff;strokeColor=none;fontSize=12;" vertex="1" parent="1">
                    <mxGeometry x="-190.32999999999998" y="1530" width="120" height="60" as="geometry"/>
                </mxCell>
                <mxCell id="126" style="edgeStyle=orthogonalEdgeStyle;rounded=0;orthogonalLoop=1;jettySize=auto;html=1;exitX=0.5;exitY=1;exitDx=0;exitDy=0;entryX=0.5;entryY=0;entryDx=0;entryDy=0;fontFamily=Courier New;fontSize=12;fontColor=#ffffff;startArrow=none;startFill=0;endArrow=block;endFill=1;strokeColor=#1FB3E0;strokeWidth=3;fillColor=#1ba1e2;align=center;" edge="1" parent="1" source="119" target="125">
                    <mxGeometry relative="1" as="geometry"/>
                </mxCell>
                <mxCell id="119" value="User input:&lt;br&gt;answer/&lt;br&gt;keyword" style="shape=parallelogram;perimeter=parallelogramPerimeter;whiteSpace=wrap;html=1;fixedSize=1;rounded=0;fontFamily=Courier New;fontSize=12;fontColor=#ffffff;strokeWidth=0;fillColor=#6a00ff;align=center;verticalAlign=middle;" vertex="1" parent="1">
                    <mxGeometry x="-190.32999999999998" y="1790" width="120" height="50" as="geometry"/>
                </mxCell>
                <mxCell id="121" value="Keywords" style="swimlane;fontStyle=0;childLayout=stackLayout;horizontal=1;startSize=26;horizontalStack=0;resizeParent=1;resizeParentMax=0;resizeLast=0;collapsible=1;marginBottom=0;rounded=0;shadow=0;glass=0;sketch=0;fontFamily=Courier New;fontSize=12;fontColor=#ffffff;strokeColor=#00CCCC;strokeWidth=2;fillColor=#3B008F;align=center;html=1;" vertex="1" parent="1">
                    <mxGeometry x="-600.3299999999999" y="2275" width="140" height="104" as="geometry">
                        <mxRectangle x="570" y="1250" width="100" height="26" as="alternateBounds"/>
                    </mxGeometry>
                </mxCell>
                <mxCell id="122" value="Help" style="text;strokeColor=#3700CC;align=left;verticalAlign=top;spacingLeft=4;spacingRight=4;overflow=hidden;rotatable=0;points=[[0,0.5],[1,0.5]];portConstraint=eastwest;fontColor=#ffffff;fontFamily=Courier New;fillColor=#6A00FF;" vertex="1" parent="121">
                    <mxGeometry y="26" width="140" height="26" as="geometry"/>
                </mxCell>
                <mxCell id="123" value="Scores" style="text;strokeColor=#3700CC;align=left;verticalAlign=top;spacingLeft=4;spacingRight=4;overflow=hidden;rotatable=0;points=[[0,0.5],[1,0.5]];portConstraint=eastwest;fontColor=#ffffff;fontFamily=Courier New;fillColor=#6A00FF;" vertex="1" parent="121">
                    <mxGeometry y="52" width="140" height="26" as="geometry"/>
                </mxCell>
                <mxCell id="124" value="Take" style="text;strokeColor=#3700CC;align=left;verticalAlign=top;spacingLeft=4;spacingRight=4;overflow=hidden;rotatable=0;points=[[0,0.5],[1,0.5]];portConstraint=eastwest;fontColor=#ffffff;fontFamily=Courier New;fillColor=#6A00FF;" vertex="1" parent="121">
                    <mxGeometry y="78" width="140" height="26" as="geometry"/>
                </mxCell>
                <mxCell id="135" value="False" style="edgeStyle=orthogonalEdgeStyle;rounded=0;orthogonalLoop=1;jettySize=auto;html=1;exitX=1;exitY=0.5;exitDx=0;exitDy=0;entryX=1;entryY=0.5;entryDx=0;entryDy=0;fontFamily=Courier New;fontSize=12;fontColor=#ffffff;startArrow=none;startFill=0;endArrow=block;endFill=1;strokeColor=#1FB3E0;strokeWidth=3;fillColor=#1ba1e2;align=center;" edge="1" parent="1" source="125" target="132">
                    <mxGeometry x="-0.5276" relative="1" as="geometry">
                        <mxPoint as="offset"/>
                    </mxGeometry>
                </mxCell>
                <mxCell id="146" value="True" style="edgeStyle=orthogonalEdgeStyle;rounded=0;orthogonalLoop=1;jettySize=auto;html=1;exitX=0;exitY=0.5;exitDx=0;exitDy=0;entryX=0;entryY=0;entryDx=0;entryDy=0;fontFamily=Courier New;fontSize=12;fontColor=#ffffff;startArrow=none;startFill=0;endArrow=block;endFill=1;strokeColor=#1FB3E0;strokeWidth=3;fillColor=#1ba1e2;align=center;" edge="1" parent="1" source="125" target="145">
                    <mxGeometry relative="1" as="geometry">
                        <Array as="points">
                            <mxPoint x="-206.32999999999998" y="1900"/>
                            <mxPoint x="-206.32999999999998" y="1943"/>
                        </Array>
                    </mxGeometry>
                </mxCell>
                <mxCell id="125" value="Validate" style="rhombus;whiteSpace=wrap;html=1;rounded=0;fontColor=#ffffff;fillColor=#6a00ff;strokeColor=none;fontFamily=Courier New;fontSize=12;" vertex="1" parent="1">
                    <mxGeometry x="-186.32999999999998" y="1870" width="110" height="60" as="geometry"/>
                </mxCell>
                <mxCell id="134" style="edgeStyle=orthogonalEdgeStyle;rounded=0;orthogonalLoop=1;jettySize=auto;html=1;exitX=0.5;exitY=1;exitDx=0;exitDy=0;entryX=0.5;entryY=0;entryDx=0;entryDy=0;fontFamily=Courier New;fontSize=12;fontColor=#ffffff;startArrow=ERmany;startFill=0;endArrow=block;endFill=1;strokeColor=#1FB3E0;strokeWidth=3;fillColor=#1ba1e2;align=center;" edge="1" parent="1" source="132" target="119">
                    <mxGeometry relative="1" as="geometry"/>
                </mxCell>
                <mxCell id="132" value="" style="ellipse;whiteSpace=wrap;html=1;aspect=fixed;rounded=0;shadow=0;glass=0;sketch=0;fontFamily=Courier New;fontSize=12;fontColor=#ffffff;strokeColor=#00CCCC;strokeWidth=2;fillColor=#6a00ff;align=center;" vertex="1" parent="1">
                    <mxGeometry x="-140.32999999999998" y="1720" width="20" height="20" as="geometry"/>
                </mxCell>
                <mxCell id="197" value="keyword" style="edgeStyle=orthogonalEdgeStyle;jumpStyle=gap;orthogonalLoop=1;jettySize=auto;html=1;exitX=0;exitY=0.5;exitDx=0;exitDy=0;fontFamily=Courier New;fontSize=12;fontColor=#ffffff;startArrow=none;startFill=0;endArrow=block;endFill=1;strokeColor=#1FB3E0;strokeWidth=3;fillColor=#1ba1e2;align=center;rounded=0;entryX=0.5;entryY=0;entryDx=0;entryDy=0;" edge="1" parent="1" source="137" target="198">
                    <mxGeometry relative="1" as="geometry">
                        <mxPoint x="-230.3300000000002" y="2110" as="targetPoint"/>
                    </mxGeometry>
                </mxCell>
                <mxCell id="137" value="Keyword/&lt;br&gt;answer" style="rhombus;whiteSpace=wrap;html=1;rounded=0;fontColor=#ffffff;fillColor=#6a00ff;strokeColor=none;fontFamily=Courier New;fontSize=12;" vertex="1" parent="1">
                    <mxGeometry x="-185.32999999999998" y="1990" width="110" height="60" as="geometry"/>
                </mxCell>
                <mxCell id="143" value="False" style="edgeStyle=orthogonalEdgeStyle;rounded=0;orthogonalLoop=1;jettySize=auto;html=1;exitX=1;exitY=0.5;exitDx=0;exitDy=0;fontFamily=Courier New;fontSize=12;fontColor=#ffffff;startArrow=none;startFill=0;endArrow=block;endFill=1;strokeColor=#1FB3E0;strokeWidth=3;fillColor=#1ba1e2;align=center;entryX=0;entryY=1;entryDx=0;entryDy=0;" edge="1" parent="1" source="139" target="199">
                    <mxGeometry x="-0.6112" relative="1" as="geometry">
                        <mxPoint x="-265.32999999999976" y="2010" as="targetPoint"/>
                        <Array as="points">
                            <mxPoint x="252.67000000000002" y="2100"/>
                        </Array>
                        <mxPoint as="offset"/>
                    </mxGeometry>
                </mxCell>
                <mxCell id="152" value="True" style="edgeStyle=orthogonalEdgeStyle;rounded=0;jumpStyle=gap;orthogonalLoop=1;jettySize=auto;html=1;exitX=0;exitY=0.5;exitDx=0;exitDy=0;entryX=0.5;entryY=0;entryDx=0;entryDy=0;fontFamily=Courier New;fontSize=12;fontColor=#ffffff;startArrow=none;startFill=0;endArrow=block;endFill=1;strokeColor=#1FB3E0;strokeWidth=3;fillColor=#1ba1e2;align=center;" edge="1" parent="1" source="139" target="151">
                    <mxGeometry relative="1" as="geometry"/>
                </mxCell>
                <mxCell id="139" value="Validate" style="rhombus;whiteSpace=wrap;html=1;rounded=0;fontColor=#ffffff;fillColor=#6a00ff;strokeColor=none;fontFamily=Courier New;fontSize=12;" vertex="1" parent="1">
                    <mxGeometry x="49.670000000000016" y="2070" width="110" height="60" as="geometry"/>
                </mxCell>
                <mxCell id="147" style="edgeStyle=orthogonalEdgeStyle;rounded=0;orthogonalLoop=1;jettySize=auto;html=1;exitX=0.5;exitY=1;exitDx=0;exitDy=0;entryX=0.5;entryY=0;entryDx=0;entryDy=0;fontFamily=Courier New;fontSize=12;fontColor=#ffffff;startArrow=ERmany;startFill=0;endArrow=block;endFill=1;strokeColor=#1FB3E0;strokeWidth=3;fillColor=#1ba1e2;align=center;" edge="1" parent="1" source="145" target="137">
                    <mxGeometry relative="1" as="geometry"/>
                </mxCell>
                <mxCell id="145" value="" style="ellipse;whiteSpace=wrap;html=1;aspect=fixed;rounded=0;shadow=0;glass=0;sketch=0;fontFamily=Courier New;fontSize=12;fontColor=#ffffff;strokeColor=#00CCCC;strokeWidth=2;fillColor=#6a00ff;align=center;" vertex="1" parent="1">
                    <mxGeometry x="-140.32999999999998" y="1940" width="20" height="20" as="geometry"/>
                </mxCell>
                <mxCell id="142" value="answer" style="edgeStyle=orthogonalEdgeStyle;rounded=0;orthogonalLoop=1;jettySize=auto;html=1;exitX=1;exitY=0.5;exitDx=0;exitDy=0;fontFamily=Courier New;fontSize=12;fontColor=#ffffff;startArrow=none;startFill=0;endArrow=block;endFill=1;strokeColor=#1FB3E0;strokeWidth=3;fillColor=#1ba1e2;align=center;entryX=0.5;entryY=0;entryDx=0;entryDy=0;jumpStyle=gap;spacing=2;" edge="1" parent="1" source="137" target="139">
                    <mxGeometry x="0.087" relative="1" as="geometry">
                        <mxPoint x="-255.32999999999998" y="2000" as="targetPoint"/>
                        <mxPoint as="offset"/>
                    </mxGeometry>
                </mxCell>
                <mxCell id="156" style="edgeStyle=orthogonalEdgeStyle;rounded=0;jumpStyle=gap;orthogonalLoop=1;jettySize=auto;html=1;exitX=0.5;exitY=1;exitDx=0;exitDy=0;entryX=0.5;entryY=0;entryDx=0;entryDy=0;fontFamily=Courier New;fontSize=12;fontColor=#ffffff;startArrow=none;startFill=0;endArrow=block;endFill=1;strokeColor=#1FB3E0;strokeWidth=3;fillColor=#1ba1e2;align=center;" edge="1" parent="1" source="151" target="155">
                    <mxGeometry relative="1" as="geometry"/>
                </mxCell>
                <mxCell id="151" value="&lt;font face=&quot;Courier New&quot;&gt;Check answer&lt;/font&gt;" style="rounded=0;whiteSpace=wrap;html=1;verticalAlign=middle;fillColor=#6a00ff;fontColor=#ffffff;strokeColor=none;fontSize=12;" vertex="1" parent="1">
                    <mxGeometry x="44.670000000000016" y="2200" width="120" height="60" as="geometry"/>
                </mxCell>
                <mxCell id="158" value="False" style="edgeStyle=orthogonalEdgeStyle;rounded=0;jumpStyle=gap;orthogonalLoop=1;jettySize=auto;html=1;exitX=1;exitY=0.5;exitDx=0;exitDy=0;entryX=0;entryY=0.5;entryDx=0;entryDy=0;fontFamily=Courier New;fontSize=12;fontColor=#ffffff;startArrow=none;startFill=0;endArrow=block;endFill=1;strokeColor=#1FB3E0;strokeWidth=3;fillColor=#1ba1e2;align=center;" edge="1" parent="1" source="155" target="157">
                    <mxGeometry relative="1" as="geometry"/>
                </mxCell>
                <mxCell id="178" value="True" style="edgeStyle=orthogonalEdgeStyle;rounded=0;jumpStyle=gap;orthogonalLoop=1;jettySize=auto;html=1;exitX=0;exitY=0.5;exitDx=0;exitDy=0;fontFamily=Courier New;fontSize=12;fontColor=#ffffff;startArrow=none;startFill=0;endArrow=block;endFill=1;strokeColor=#1FB3E0;strokeWidth=3;fillColor=#1ba1e2;align=center;entryX=0.5;entryY=0;entryDx=0;entryDy=0;" edge="1" parent="1" source="155" target="180">
                    <mxGeometry relative="1" as="geometry">
                        <mxPoint x="104.67000000000002" y="2450" as="targetPoint"/>
                    </mxGeometry>
                </mxCell>
                <mxCell id="155" value="Correct?" style="rhombus;whiteSpace=wrap;html=1;rounded=0;fontColor=#ffffff;fillColor=#6a00ff;strokeColor=none;fontFamily=Courier New;fontSize=12;" vertex="1" parent="1">
                    <mxGeometry x="49.670000000000016" y="2300" width="110" height="60" as="geometry"/>
                </mxCell>
                <mxCell id="160" value="" style="edgeStyle=orthogonalEdgeStyle;rounded=0;jumpStyle=gap;orthogonalLoop=1;jettySize=auto;html=1;fontFamily=Courier New;fontSize=12;fontColor=#ffffff;startArrow=diamond;startFill=1;endArrow=diamond;endFill=1;strokeColor=#1FB3E0;strokeWidth=3;fillColor=#1ba1e2;align=center;" edge="1" parent="1" source="157" target="159">
                    <mxGeometry relative="1" as="geometry"/>
                </mxCell>
                <mxCell id="165" style="edgeStyle=orthogonalEdgeStyle;rounded=0;jumpStyle=gap;orthogonalLoop=1;jettySize=auto;html=1;exitX=0.5;exitY=1;exitDx=0;exitDy=0;entryX=0.5;entryY=0;entryDx=0;entryDy=0;fontFamily=Courier New;fontSize=12;fontColor=#ffffff;startArrow=none;startFill=0;endArrow=block;endFill=1;strokeColor=#1FB3E0;strokeWidth=3;fillColor=#1ba1e2;align=center;" edge="1" parent="1" source="157" target="164">
                    <mxGeometry relative="1" as="geometry"/>
                </mxCell>
                <mxCell id="157" value="- Check for safe points&lt;br&gt;- Check final score&amp;nbsp;" style="shape=process;whiteSpace=wrap;html=1;backgroundOutline=1;rounded=0;fontFamily=Courier New;fontColor=#ffffff;strokeWidth=1;fillColor=#6a00ff;perimeterSpacing=2;strokeColor=#00CCCC;" vertex="1" parent="1">
                    <mxGeometry x="254.67000000000002" y="2275" width="210" height="110" as="geometry"/>
                </mxCell>
                <mxCell id="159" value="Scores google sheet" style="shape=cylinder;whiteSpace=wrap;html=1;boundedLbl=1;backgroundOutline=1;rounded=0;fontFamily=Courier New;fontColor=#ffffff;strokeColor=#00CCCC;strokeWidth=1;fillColor=#6a00ff;" vertex="1" parent="1">
                    <mxGeometry x="294.67" y="1770" width="130" height="150" as="geometry"/>
                </mxCell>
                <mxCell id="166" value="True" style="edgeStyle=orthogonalEdgeStyle;rounded=0;jumpStyle=gap;orthogonalLoop=1;jettySize=auto;html=1;exitX=1;exitY=0.5;exitDx=0;exitDy=0;entryX=0.5;entryY=1;entryDx=0;entryDy=0;fontFamily=Courier New;fontSize=12;fontColor=#ffffff;startArrow=none;startFill=0;endArrow=block;endFill=1;strokeColor=#1FB3E0;strokeWidth=3;fillColor=#1ba1e2;align=center;" edge="1" parent="1" source="164" target="167">
                    <mxGeometry relative="1" as="geometry">
                        <Array as="points">
                            <mxPoint x="509.67" y="2480"/>
                        </Array>
                    </mxGeometry>
                </mxCell>
                <mxCell id="171" value="False" style="edgeStyle=orthogonalEdgeStyle;rounded=0;jumpStyle=gap;orthogonalLoop=1;jettySize=auto;html=1;exitX=0;exitY=0.5;exitDx=0;exitDy=0;fontFamily=Courier New;fontSize=12;fontColor=#ffffff;startArrow=none;startFill=0;endArrow=block;endFill=1;strokeColor=#1FB3E0;strokeWidth=3;fillColor=#1ba1e2;align=center;entryX=0.5;entryY=0;entryDx=0;entryDy=0;" edge="1" parent="1" source="164" target="170">
                    <mxGeometry relative="1" as="geometry">
                        <mxPoint x="279.67" y="2545" as="targetPoint"/>
                        <Array as="points">
                            <mxPoint x="284.67" y="2480"/>
                            <mxPoint x="284.67" y="2540"/>
                            <mxPoint x="359.67" y="2540"/>
                        </Array>
                    </mxGeometry>
                </mxCell>
                <mxCell id="164" value="high score?" style="rhombus;whiteSpace=wrap;html=1;rounded=0;fontColor=#ffffff;fillColor=#6a00ff;strokeColor=none;fontFamily=Courier New;fontSize=12;" vertex="1" parent="1">
                    <mxGeometry x="304.67" y="2450" width="110" height="60" as="geometry"/>
                </mxCell>
                <mxCell id="168" style="edgeStyle=orthogonalEdgeStyle;rounded=0;jumpStyle=gap;orthogonalLoop=1;jettySize=auto;html=1;exitX=0.5;exitY=0;exitDx=0;exitDy=0;entryX=1;entryY=0.5;entryDx=0;entryDy=0;fontFamily=Courier New;fontSize=12;fontColor=#ffffff;startArrow=none;startFill=0;endArrow=block;endFill=1;strokeColor=#1FB3E0;strokeWidth=3;fillColor=#1ba1e2;align=center;dashed=1;" edge="1" parent="1" source="167" target="159">
                    <mxGeometry relative="1" as="geometry"/>
                </mxCell>
                <mxCell id="169" style="edgeStyle=orthogonalEdgeStyle;rounded=0;jumpStyle=gap;orthogonalLoop=1;jettySize=auto;html=1;exitX=1;exitY=0.5;exitDx=0;exitDy=0;fontFamily=Courier New;fontSize=12;fontColor=#ffffff;startArrow=none;startFill=0;endArrow=block;endFill=1;strokeColor=#1FB3E0;strokeWidth=3;fillColor=#1ba1e2;align=center;entryX=0.75;entryY=0;entryDx=0;entryDy=0;" edge="1" parent="1" source="167" target="170">
                    <mxGeometry relative="1" as="geometry">
                        <mxPoint x="599.6700000000001" y="2550" as="targetPoint"/>
                        <Array as="points">
                            <mxPoint x="589.6700000000001" y="2080"/>
                            <mxPoint x="589.6700000000001" y="2540"/>
                            <mxPoint x="389.67" y="2540"/>
                        </Array>
                    </mxGeometry>
                </mxCell>
                <mxCell id="167" value="&lt;font face=&quot;Courier New&quot;&gt;Update scores&lt;/font&gt;" style="rounded=0;whiteSpace=wrap;html=1;verticalAlign=middle;fillColor=#6a00ff;fontColor=#ffffff;strokeColor=none;fontSize=12;" vertex="1" parent="1">
                    <mxGeometry x="449.67" y="2050" width="120" height="60" as="geometry"/>
                </mxCell>
                <mxCell id="173" style="edgeStyle=orthogonalEdgeStyle;rounded=0;jumpStyle=gap;orthogonalLoop=1;jettySize=auto;html=1;exitX=0.5;exitY=1;exitDx=0;exitDy=0;entryX=0.5;entryY=0;entryDx=0;entryDy=0;fontFamily=Courier New;fontSize=12;fontColor=#ffffff;startArrow=none;startFill=0;endArrow=block;endFill=1;strokeColor=#1FB3E0;strokeWidth=3;fillColor=#1ba1e2;align=center;" edge="1" parent="1" source="170" target="193">
                    <mxGeometry relative="1" as="geometry"/>
                </mxCell>
                <mxCell id="170" value="Print:&lt;br&gt;Loss message" style="shape=parallelogram;perimeter=parallelogramPerimeter;whiteSpace=wrap;html=1;fixedSize=1;rounded=0;fontFamily=Courier New;fontSize=12;fontColor=#ffffff;strokeWidth=0;fillColor=#3B008F;" vertex="1" parent="1">
                    <mxGeometry x="299.67" y="2580" width="120" height="50" as="geometry"/>
                </mxCell>
                <mxCell id="174" value="yes" style="edgeStyle=orthogonalEdgeStyle;rounded=0;jumpStyle=gap;orthogonalLoop=1;jettySize=auto;html=1;exitX=1;exitY=0.5;exitDx=0;exitDy=0;fontFamily=Courier New;fontSize=12;fontColor=#ffffff;startArrow=none;startFill=0;endArrow=block;endFill=1;strokeColor=#1FB3E0;strokeWidth=3;fillColor=#1ba1e2;align=center;entryX=0.5;entryY=1;entryDx=0;entryDy=0;" edge="1" parent="1" source="172" target="177">
                    <mxGeometry x="-0.8883" relative="1" as="geometry">
                        <mxPoint x="619.6700000000001" y="1670" as="targetPoint"/>
                        <Array as="points">
                            <mxPoint x="624.6700000000001" y="2740"/>
                        </Array>
                        <mxPoint as="offset"/>
                    </mxGeometry>
                </mxCell>
                <mxCell id="270" style="edgeStyle=orthogonalEdgeStyle;rounded=0;jumpStyle=gap;jumpSize=10;orthogonalLoop=1;jettySize=auto;html=1;exitX=0;exitY=0.5;exitDx=0;exitDy=0;fontFamily=Courier New;fontSize=12;fontColor=#ffffff;startArrow=none;startFill=0;endArrow=block;endFill=1;strokeColor=#1FB3E0;strokeWidth=3;fillColor=#1ba1e2;align=center;entryX=0.5;entryY=0;entryDx=0;entryDy=0;" edge="1" parent="1" source="172" target="273">
                    <mxGeometry relative="1" as="geometry">
                        <mxPoint x="279.67" y="2910" as="targetPoint"/>
                        <Array as="points">
                            <mxPoint x="279.67" y="2740"/>
                            <mxPoint x="279.67" y="2890"/>
                            <mxPoint x="89.67000000000002" y="2890"/>
                        </Array>
                    </mxGeometry>
                </mxCell>
                <mxCell id="172" value="replay?" style="rhombus;whiteSpace=wrap;html=1;rounded=0;fontColor=#ffffff;fillColor=#6a00ff;strokeColor=none;fontFamily=Courier New;fontSize=12;" vertex="1" parent="1">
                    <mxGeometry x="304.67" y="2710" width="110" height="60" as="geometry"/>
                </mxCell>
                <mxCell id="176" style="edgeStyle=orthogonalEdgeStyle;rounded=0;jumpStyle=gap;orthogonalLoop=1;jettySize=auto;html=1;exitX=0.5;exitY=0;exitDx=0;exitDy=0;entryX=0.5;entryY=1;entryDx=0;entryDy=0;fontFamily=Courier New;fontSize=12;fontColor=#ffffff;startArrow=none;startFill=0;endArrow=block;endFill=1;strokeColor=#1FB3E0;strokeWidth=3;fillColor=#1ba1e2;align=center;" edge="1" parent="1" source="177" target="266">
                    <mxGeometry relative="1" as="geometry">
                        <mxPoint x="619.6700000000001" y="1625" as="sourcePoint"/>
                        <Array as="points">
                            <mxPoint x="624.6700000000001" y="1300"/>
                            <mxPoint x="219.67000000000002" y="1300"/>
                        </Array>
                    </mxGeometry>
                </mxCell>
                <mxCell id="177" value="- Reset question number&lt;br&gt;- Reset life lines" style="shape=process;whiteSpace=wrap;html=1;backgroundOutline=1;rounded=0;fontFamily=Courier New;fontColor=#ffffff;strokeWidth=1;fillColor=#6a00ff;perimeterSpacing=2;strokeColor=#00CCCC;" vertex="1" parent="1">
                    <mxGeometry x="519.6700000000001" y="1480" width="210" height="110" as="geometry"/>
                </mxCell>
                <mxCell id="186" style="edgeStyle=orthogonalEdgeStyle;rounded=0;jumpStyle=gap;orthogonalLoop=1;jettySize=auto;html=1;exitX=0;exitY=0.5;exitDx=0;exitDy=0;entryX=0.5;entryY=0;entryDx=0;entryDy=0;fontFamily=Courier New;fontSize=12;fontColor=#ffffff;startArrow=diamond;startFill=1;endArrow=diamond;endFill=1;strokeColor=#1FB3E0;strokeWidth=3;fillColor=#1ba1e2;align=center;dashed=1;" edge="1" parent="1" source="180" target="182">
                    <mxGeometry relative="1" as="geometry"/>
                </mxCell>
                <mxCell id="187" value="False" style="edgeStyle=orthogonalEdgeStyle;rounded=0;jumpStyle=gap;orthogonalLoop=1;jettySize=auto;html=1;entryX=0.5;entryY=0;entryDx=0;entryDy=0;fontFamily=Courier New;fontSize=12;fontColor=#ffffff;startArrow=none;startFill=0;endArrow=block;endFill=1;strokeColor=#1FB3E0;strokeWidth=3;fillColor=#1ba1e2;align=center;exitX=1;exitY=0.5;exitDx=0;exitDy=0;" edge="1" parent="1" source="188" target="266">
                    <mxGeometry x="-0.9677" relative="1" as="geometry">
                        <mxPoint x="279.67" y="2780" as="sourcePoint"/>
                        <Array as="points">
                            <mxPoint x="239.67000000000002" y="2640"/>
                            <mxPoint x="239.67000000000002" y="2780"/>
                            <mxPoint x="749.6700000000001" y="2780"/>
                            <mxPoint x="749.6700000000001" y="1040"/>
                            <mxPoint x="219.67000000000002" y="1040"/>
                        </Array>
                        <mxPoint as="offset"/>
                    </mxGeometry>
                </mxCell>
                <mxCell id="189" style="edgeStyle=orthogonalEdgeStyle;rounded=0;jumpStyle=gap;orthogonalLoop=1;jettySize=auto;html=1;exitX=0.5;exitY=1;exitDx=0;exitDy=0;entryX=0.5;entryY=0;entryDx=0;entryDy=0;fontFamily=Courier New;fontSize=12;fontColor=#ffffff;startArrow=none;startFill=0;endArrow=block;endFill=1;strokeColor=#1FB3E0;strokeWidth=3;fillColor=#1ba1e2;align=center;" edge="1" parent="1" source="180" target="188">
                    <mxGeometry relative="1" as="geometry"/>
                </mxCell>
                <mxCell id="180" value="- Increment question number&lt;br&gt;- Check for safe point" style="shape=process;whiteSpace=wrap;html=1;backgroundOutline=1;rounded=0;fontFamily=Courier New;fontColor=#ffffff;strokeWidth=1;fillColor=#6a00ff;perimeterSpacing=2;strokeColor=#00CCCC;" vertex="1" parent="1">
                    <mxGeometry x="-0.3299999999999841" y="2450" width="210" height="110" as="geometry"/>
                </mxCell>
                <mxCell id="182" value="Safe Points" style="swimlane;fontStyle=0;childLayout=stackLayout;horizontal=1;startSize=26;horizontalStack=0;resizeParent=1;resizeParentMax=0;resizeLast=0;collapsible=1;marginBottom=0;rounded=0;shadow=0;glass=0;sketch=0;fontFamily=Courier New;fontSize=12;fontColor=#ffffff;strokeColor=#00CCCC;strokeWidth=2;fillColor=#3B008F;align=center;html=1;" vertex="1" parent="1">
                    <mxGeometry x="-201.32999999999998" y="2552" width="140" height="78" as="geometry">
                        <mxRectangle x="570" y="1250" width="100" height="26" as="alternateBounds"/>
                    </mxGeometry>
                </mxCell>
                <mxCell id="183" value="Question 5" style="text;strokeColor=#3700CC;align=left;verticalAlign=top;spacingLeft=4;spacingRight=4;overflow=hidden;rotatable=0;points=[[0,0.5],[1,0.5]];portConstraint=eastwest;fontColor=#ffffff;fontFamily=Courier New;fillColor=#6A00FF;" vertex="1" parent="182">
                    <mxGeometry y="26" width="140" height="26" as="geometry"/>
                </mxCell>
                <mxCell id="184" value="Question 10" style="text;strokeColor=#3700CC;align=left;verticalAlign=top;spacingLeft=4;spacingRight=4;overflow=hidden;rotatable=0;points=[[0,0.5],[1,0.5]];portConstraint=eastwest;fontColor=#ffffff;fontFamily=Courier New;fillColor=#6A00FF;" vertex="1" parent="182">
                    <mxGeometry y="52" width="140" height="26" as="geometry"/>
                </mxCell>
                <mxCell id="191" style="edgeStyle=orthogonalEdgeStyle;rounded=0;jumpStyle=gap;orthogonalLoop=1;jettySize=auto;html=1;exitX=0;exitY=0.5;exitDx=0;exitDy=0;entryX=0.5;entryY=0;entryDx=0;entryDy=0;fontFamily=Courier New;fontSize=12;fontColor=#ffffff;startArrow=none;startFill=0;endArrow=block;endFill=1;strokeColor=#1FB3E0;strokeWidth=3;fillColor=#1ba1e2;align=center;" edge="1" parent="1" source="188" target="190">
                    <mxGeometry relative="1" as="geometry"/>
                </mxCell>
                <mxCell id="188" value="End of quix?" style="rhombus;whiteSpace=wrap;html=1;rounded=0;fontColor=#ffffff;fillColor=#6a00ff;strokeColor=none;fontFamily=Courier New;fontSize=12;" vertex="1" parent="1">
                    <mxGeometry x="49.670000000000016" y="2610" width="110" height="60" as="geometry"/>
                </mxCell>
                <mxCell id="196" style="edgeStyle=orthogonalEdgeStyle;rounded=0;jumpStyle=gap;orthogonalLoop=1;jettySize=auto;html=1;entryX=1;entryY=0.25;entryDx=0;entryDy=0;fontFamily=Courier New;fontSize=12;fontColor=#ffffff;startArrow=none;startFill=0;endArrow=block;endFill=1;strokeColor=#1FB3E0;strokeWidth=3;fillColor=#1ba1e2;align=center;dashed=1;jumpSize=20;exitX=1;exitY=0.5;exitDx=0;exitDy=0;" edge="1" parent="1" source="233" target="167">
                    <mxGeometry relative="1" as="geometry">
                        <mxPoint x="69.67000000000002" y="2800" as="sourcePoint"/>
                        <Array as="points">
                            <mxPoint x="789.6700000000001" y="2840"/>
                            <mxPoint x="789.6700000000001" y="2065"/>
                        </Array>
                    </mxGeometry>
                </mxCell>
                <mxCell id="235" style="edgeStyle=orthogonalEdgeStyle;rounded=0;jumpStyle=gap;jumpSize=20;orthogonalLoop=1;jettySize=auto;html=1;exitX=0.5;exitY=1;exitDx=0;exitDy=0;entryX=0.5;entryY=0;entryDx=0;entryDy=0;fontFamily=Courier New;fontSize=12;fontColor=#ffffff;startArrow=none;startFill=0;endArrow=block;endFill=1;strokeColor=#1FB3E0;strokeWidth=3;fillColor=#1ba1e2;align=center;" edge="1" parent="1" source="190" target="234">
                    <mxGeometry relative="1" as="geometry"/>
                </mxCell>
                <mxCell id="237" style="edgeStyle=orthogonalEdgeStyle;rounded=0;jumpStyle=gap;jumpSize=20;orthogonalLoop=1;jettySize=auto;html=1;exitX=0.25;exitY=1;exitDx=0;exitDy=0;entryX=0.5;entryY=0;entryDx=0;entryDy=0;fontFamily=Courier New;fontSize=12;fontColor=#ffffff;startArrow=none;startFill=0;endArrow=block;endFill=1;strokeColor=#1FB3E0;strokeWidth=3;fillColor=#1ba1e2;align=center;dashed=1;" edge="1" parent="1" source="190" target="233">
                    <mxGeometry relative="1" as="geometry">
                        <Array as="points">
                            <mxPoint x="-60.329999999999984" y="2750"/>
                            <mxPoint x="-60.329999999999984" y="2810"/>
                            <mxPoint x="3.670000000000016" y="2810"/>
                        </Array>
                    </mxGeometry>
                </mxCell>
                <mxCell id="190" value="Print:&lt;br&gt;WIN!!" style="shape=parallelogram;perimeter=parallelogramPerimeter;whiteSpace=wrap;html=1;fixedSize=1;rounded=0;fontFamily=Courier New;fontSize=12;fontColor=#ffffff;strokeWidth=0;fillColor=#3B008F;" vertex="1" parent="1">
                    <mxGeometry x="-76.32999999999998" y="2700" width="120" height="50" as="geometry"/>
                </mxCell>
                <mxCell id="195" style="edgeStyle=orthogonalEdgeStyle;rounded=0;jumpStyle=gap;orthogonalLoop=1;jettySize=auto;html=1;exitX=0.5;exitY=1;exitDx=0;exitDy=0;entryX=0.5;entryY=0;entryDx=0;entryDy=0;fontFamily=Courier New;fontSize=12;fontColor=#ffffff;startArrow=ERmany;startFill=0;endArrow=block;endFill=1;strokeColor=#1FB3E0;strokeWidth=3;fillColor=#1ba1e2;align=center;" edge="1" parent="1" source="193" target="172">
                    <mxGeometry relative="1" as="geometry"/>
                </mxCell>
                <mxCell id="193" value="" style="ellipse;whiteSpace=wrap;html=1;aspect=fixed;rounded=0;shadow=0;glass=0;sketch=0;fontFamily=Courier New;fontSize=12;fontColor=#ffffff;strokeColor=#00CCCC;strokeWidth=2;fillColor=#6a00ff;align=center;" vertex="1" parent="1">
                    <mxGeometry x="349.67" y="2660" width="20" height="20" as="geometry"/>
                </mxCell>
                <mxCell id="194" value="" style="edgeStyle=orthogonalEdgeStyle;rounded=0;jumpStyle=gap;orthogonalLoop=1;jettySize=auto;html=1;entryX=0;entryY=0.5;entryDx=0;entryDy=0;fontFamily=Courier New;fontSize=12;fontColor=#ffffff;startArrow=none;startFill=0;endArrow=block;endFill=1;strokeColor=#1FB3E0;strokeWidth=3;fillColor=#1ba1e2;align=center;exitX=1;exitY=0.5;exitDx=0;exitDy=0;" edge="1" parent="1" source="234" target="193">
                    <mxGeometry relative="1" as="geometry">
                        <mxPoint x="109.67000000000002" y="2770" as="sourcePoint"/>
                        <mxPoint x="359.67" y="2690" as="targetPoint"/>
                        <Array as="points">
                            <mxPoint x="196.67000000000002" y="2780"/>
                            <mxPoint x="196.67000000000002" y="2670"/>
                        </Array>
                    </mxGeometry>
                </mxCell>
                <mxCell id="200" value="False" style="edgeStyle=orthogonalEdgeStyle;rounded=0;jumpStyle=gap;orthogonalLoop=1;jettySize=auto;html=1;exitX=1;exitY=0.5;exitDx=0;exitDy=0;entryX=1;entryY=1;entryDx=0;entryDy=0;fontFamily=Courier New;fontSize=12;fontColor=#ffffff;startArrow=none;startFill=0;endArrow=block;endFill=1;strokeColor=#1FB3E0;strokeWidth=3;fillColor=#1ba1e2;align=center;" edge="1" parent="1" source="198" target="199">
                    <mxGeometry x="-0.8824" relative="1" as="geometry">
                        <Array as="points">
                            <mxPoint x="-130.32999999999998" y="2100"/>
                            <mxPoint x="-130.32999999999998" y="2140"/>
                            <mxPoint x="266.67" y="2140"/>
                        </Array>
                        <mxPoint as="offset"/>
                    </mxGeometry>
                </mxCell>
                <mxCell id="210" value="True" style="edgeStyle=orthogonalEdgeStyle;rounded=0;jumpStyle=gap;orthogonalLoop=1;jettySize=auto;html=1;exitX=0;exitY=0.5;exitDx=0;exitDy=0;fontFamily=Courier New;fontSize=12;fontColor=#ffffff;startArrow=none;startFill=0;endArrow=block;endFill=1;strokeColor=#1FB3E0;strokeWidth=3;fillColor=#1ba1e2;align=center;entryX=0.5;entryY=0;entryDx=0;entryDy=0;" edge="1" parent="1" source="198" target="211">
                    <mxGeometry relative="1" as="geometry">
                        <mxPoint x="-360.3300000000002" y="2152.3529411764707" as="targetPoint"/>
                    </mxGeometry>
                </mxCell>
                <mxCell id="198" value="Validate" style="rhombus;whiteSpace=wrap;html=1;rounded=0;fontColor=#ffffff;fillColor=#6a00ff;strokeColor=none;fontFamily=Courier New;fontSize=12;" vertex="1" parent="1">
                    <mxGeometry x="-330.33" y="2070" width="110" height="60" as="geometry"/>
                </mxCell>
                <mxCell id="201" style="edgeStyle=orthogonalEdgeStyle;rounded=0;jumpStyle=gap;orthogonalLoop=1;jettySize=auto;html=1;exitX=0.5;exitY=0;exitDx=0;exitDy=0;entryX=1;entryY=0;entryDx=0;entryDy=0;fontFamily=Courier New;fontSize=12;fontColor=#ffffff;startArrow=none;startFill=0;endArrow=block;endFill=1;strokeColor=#1FB3E0;strokeWidth=3;fillColor=#1ba1e2;align=center;" edge="1" parent="1" source="199" target="145">
                    <mxGeometry relative="1" as="geometry">
                        <Array as="points">
                            <mxPoint x="259.67" y="1943"/>
                        </Array>
                    </mxGeometry>
                </mxCell>
                <mxCell id="199" value="" style="ellipse;whiteSpace=wrap;html=1;aspect=fixed;rounded=0;shadow=0;glass=0;sketch=0;fontFamily=Courier New;fontSize=12;fontColor=#ffffff;strokeColor=#00CCCC;strokeWidth=2;fillColor=#6a00ff;align=center;" vertex="1" parent="1">
                    <mxGeometry x="249.67000000000002" y="1970" width="20" height="20" as="geometry"/>
                </mxCell>
                <mxCell id="212" style="edgeStyle=orthogonalEdgeStyle;rounded=0;jumpStyle=gap;orthogonalLoop=1;jettySize=auto;html=1;exitX=0.5;exitY=1;exitDx=0;exitDy=0;fontFamily=Courier New;fontSize=12;fontColor=#ffffff;startArrow=none;startFill=0;endArrow=block;endFill=1;strokeColor=#1FB3E0;strokeWidth=3;fillColor=#1ba1e2;align=center;entryX=0.5;entryY=0;entryDx=0;entryDy=0;" edge="1" parent="1" source="211" target="121">
                    <mxGeometry relative="1" as="geometry">
                        <mxPoint x="-530.3299999999999" y="2260" as="targetPoint"/>
                    </mxGeometry>
                </mxCell>
                <mxCell id="211" value="&lt;font face=&quot;Courier New&quot;&gt;Check keyword&lt;/font&gt;" style="rounded=0;whiteSpace=wrap;html=1;verticalAlign=middle;fillColor=#6a00ff;fontColor=#ffffff;strokeColor=none;fontSize=12;" vertex="1" parent="1">
                    <mxGeometry x="-420.33" y="2160" width="120" height="60" as="geometry"/>
                </mxCell>
                <mxCell id="213" style="edgeStyle=orthogonalEdgeStyle;rounded=0;jumpStyle=gap;orthogonalLoop=1;jettySize=auto;html=1;exitX=1;exitY=0.5;exitDx=0;exitDy=0;entryX=0;entryY=0.5;entryDx=0;entryDy=0;fontFamily=Courier New;fontSize=12;fontColor=#ffffff;startArrow=none;startFill=0;endArrow=block;endFill=1;strokeColor=#1FB3E0;strokeWidth=3;fillColor=#1ba1e2;align=center;dashed=1;dashPattern=1 1;" edge="1" parent="1" source="122" target="22">
                    <mxGeometry relative="1" as="geometry">
                        <Array as="points">
                            <mxPoint x="-440.33" y="2314"/>
                            <mxPoint x="-440.33" y="1451"/>
                            <mxPoint x="-490.33" y="1451"/>
                            <mxPoint x="-490.33" y="575"/>
                        </Array>
                    </mxGeometry>
                </mxCell>
                <mxCell id="221" style="edgeStyle=orthogonalEdgeStyle;rounded=0;jumpStyle=gap;orthogonalLoop=1;jettySize=auto;html=1;exitX=0.5;exitY=1;exitDx=0;exitDy=0;dashed=1;dashPattern=1 1;fontFamily=Courier New;fontSize=12;fontColor=#ffffff;startArrow=none;startFill=0;endArrow=block;endFill=1;strokeColor=#1FB3E0;strokeWidth=3;fillColor=#1ba1e2;align=center;entryX=0.5;entryY=0;entryDx=0;entryDy=0;arcSize=20;jumpSize=20;" edge="1" parent="1" source="219" target="223">
                    <mxGeometry relative="1" as="geometry">
                        <mxPoint x="-360.33" y="1505" as="targetPoint"/>
                        <Array as="points">
                            <mxPoint x="-650.3299999999999" y="2597"/>
                            <mxPoint x="-730.3299999999999" y="2597"/>
                            <mxPoint x="-730.3299999999999" y="1730"/>
                            <mxPoint x="-490.33" y="1730"/>
                            <mxPoint x="-490.33" y="1470"/>
                            <mxPoint x="-355.33" y="1470"/>
                        </Array>
                    </mxGeometry>
                </mxCell>
                <mxCell id="219" value="Print:&lt;br&gt;scores" style="shape=parallelogram;perimeter=parallelogramPerimeter;whiteSpace=wrap;html=1;fixedSize=1;rounded=0;fontFamily=Courier New;fontSize=12;fontColor=#ffffff;strokeWidth=0;fillColor=#3B008F;" vertex="1" parent="1">
                    <mxGeometry x="-710.3299999999999" y="2527" width="120" height="50" as="geometry"/>
                </mxCell>
                <mxCell id="220" style="edgeStyle=orthogonalEdgeStyle;rounded=0;jumpStyle=gap;orthogonalLoop=1;jettySize=auto;html=1;exitX=0;exitY=0.5;exitDx=0;exitDy=0;entryX=0.5;entryY=0;entryDx=0;entryDy=0;fontFamily=Courier New;fontSize=12;fontColor=#ffffff;startArrow=none;startFill=0;endArrow=block;endFill=1;strokeColor=#1FB3E0;strokeWidth=3;fillColor=#1ba1e2;align=center;dashed=1;dashPattern=1 1;" edge="1" parent="1" source="123" target="219">
                    <mxGeometry relative="1" as="geometry"/>
                </mxCell>
                <mxCell id="223" value="Press to continue" style="shape=parallelogram;perimeter=parallelogramPerimeter;whiteSpace=wrap;html=1;fixedSize=1;rounded=0;fontFamily=Courier New;fontSize=12;fontColor=#ffffff;strokeWidth=0;fillColor=#6a00ff;" vertex="1" parent="1">
                    <mxGeometry x="-415.33" y="1510" width="120" height="50" as="geometry"/>
                </mxCell>
                <mxCell id="88" style="edgeStyle=orthogonalEdgeStyle;rounded=0;orthogonalLoop=1;jettySize=auto;html=1;exitX=0;exitY=0.5;exitDx=0;exitDy=0;fontFamily=Courier New;fontSize=12;fontColor=#ffffff;startArrow=diamond;startFill=1;endArrow=diamond;endFill=1;strokeColor=#1FB3E0;strokeWidth=3;fillColor=#1ba1e2;align=center;" edge="1" parent="1" source="82">
                    <mxGeometry relative="1" as="geometry">
                        <mxPoint x="-600.3299999999999" y="2397" as="targetPoint"/>
                        <Array as="points">
                            <mxPoint x="-270.33" y="1370"/>
                            <mxPoint x="-270.33" y="1930"/>
                            <mxPoint x="-630.3299999999999" y="1930"/>
                            <mxPoint x="-630.3299999999999" y="2397"/>
                        </Array>
                    </mxGeometry>
                </mxCell>
                <mxCell id="216" style="edgeStyle=orthogonalEdgeStyle;rounded=0;jumpStyle=gap;orthogonalLoop=1;jettySize=auto;html=1;exitX=0;exitY=1;exitDx=0;exitDy=0;entryX=0.75;entryY=0;entryDx=0;entryDy=0;dashed=1;dashPattern=1 1;fontFamily=Courier New;fontSize=12;fontColor=#ffffff;startArrow=none;startFill=0;endArrow=block;endFill=1;strokeColor=#1FB3E0;strokeWidth=3;fillColor=#1ba1e2;align=center;jumpSize=20;" edge="1" parent="1" source="39" target="223">
                    <mxGeometry relative="1" as="geometry">
                        <mxPoint x="-330.33" y="1505" as="targetPoint"/>
                        <Array as="points">
                            <mxPoint x="-240.32999999999998" y="1085"/>
                            <mxPoint x="-240.32999999999998" y="1460"/>
                            <mxPoint x="-325.33" y="1460"/>
                        </Array>
                    </mxGeometry>
                </mxCell>
                <mxCell id="217" style="edgeStyle=orthogonalEdgeStyle;rounded=0;jumpStyle=gap;orthogonalLoop=1;jettySize=auto;html=1;exitX=0.5;exitY=1;exitDx=0;exitDy=0;entryX=0;entryY=0.75;entryDx=0;entryDy=0;dashed=1;dashPattern=1 1;fontFamily=Courier New;fontSize=12;fontColor=#ffffff;startArrow=none;startFill=0;endArrow=block;endFill=1;strokeColor=#1FB3E0;strokeWidth=3;fillColor=#1ba1e2;align=center;jumpSize=20;" edge="1" parent="1" source="223" target="82">
                    <mxGeometry relative="1" as="geometry">
                        <mxPoint x="-360.33" y="1564.9999999999995" as="sourcePoint"/>
                        <Array as="points">
                            <mxPoint x="-355.33" y="1585"/>
                            <mxPoint x="-210.32999999999998" y="1585"/>
                            <mxPoint x="-210.32999999999998" y="1385"/>
                        </Array>
                    </mxGeometry>
                </mxCell>
                <mxCell id="218" style="edgeStyle=orthogonalEdgeStyle;rounded=0;jumpStyle=gap;orthogonalLoop=1;jettySize=auto;html=1;exitX=1;exitY=0.5;exitDx=0;exitDy=0;entryX=0;entryY=0.5;entryDx=0;entryDy=0;dashed=1;dashPattern=1 1;fontFamily=Courier New;fontSize=12;fontColor=#ffffff;startArrow=diamond;startFill=1;endArrow=diamond;endFill=1;strokeColor=#1FB3E0;strokeWidth=3;fillColor=#1ba1e2;align=center;jumpSize=20;" edge="1" parent="1" source="123" target="159">
                    <mxGeometry relative="1" as="geometry">
                        <Array as="points">
                            <mxPoint x="-0.3299999999999841" y="2340"/>
                            <mxPoint x="-0.3299999999999841" y="1845"/>
                        </Array>
                    </mxGeometry>
                </mxCell>
                <mxCell id="232" style="edgeStyle=orthogonalEdgeStyle;rounded=0;jumpStyle=gap;jumpSize=20;orthogonalLoop=1;jettySize=auto;html=1;exitX=0.75;exitY=1;exitDx=0;exitDy=0;dashed=1;fontFamily=Courier New;fontSize=12;fontColor=#ffffff;startArrow=none;startFill=0;endArrow=block;endFill=1;strokeColor=#1FB3E0;strokeWidth=3;fillColor=#1ba1e2;align=center;" edge="1" parent="1" source="225" target="231">
                    <mxGeometry relative="1" as="geometry"/>
                </mxCell>
                <mxCell id="248" style="edgeStyle=orthogonalEdgeStyle;rounded=0;jumpStyle=gap;jumpSize=20;orthogonalLoop=1;jettySize=auto;html=1;exitX=0;exitY=1;exitDx=0;exitDy=0;entryX=0.25;entryY=0;entryDx=0;entryDy=0;fontFamily=Courier New;fontSize=12;fontColor=#ffffff;startArrow=none;startFill=0;endArrow=block;endFill=1;strokeColor=#1FB3E0;strokeWidth=3;fillColor=#1ba1e2;align=center;dashed=1;dashPattern=1 4;" edge="1" parent="1" source="225" target="247">
                    <mxGeometry relative="1" as="geometry">
                        <Array as="points">
                            <mxPoint x="-440.33" y="2600"/>
                            <mxPoint x="-590.3299999999999" y="2600"/>
                        </Array>
                    </mxGeometry>
                </mxCell>
                <mxCell id="249" style="edgeStyle=orthogonalEdgeStyle;rounded=0;jumpStyle=gap;jumpSize=20;orthogonalLoop=1;jettySize=auto;html=1;exitX=0.25;exitY=1;exitDx=0;exitDy=0;entryX=0.75;entryY=0;entryDx=0;entryDy=0;fontFamily=Courier New;fontSize=12;fontColor=#ffffff;startArrow=none;startFill=0;endArrow=block;endFill=1;strokeColor=#1FB3E0;strokeWidth=3;fillColor=#1ba1e2;align=center;dashed=1;dashPattern=1 2;" edge="1" parent="1" source="225" target="247">
                    <mxGeometry relative="1" as="geometry">
                        <Array as="points">
                            <mxPoint x="-410.33" y="2610"/>
                            <mxPoint x="-530.3299999999999" y="2610"/>
                        </Array>
                    </mxGeometry>
                </mxCell>
                <mxCell id="255" style="edgeStyle=orthogonalEdgeStyle;rounded=0;jumpStyle=gap;jumpSize=20;orthogonalLoop=1;jettySize=auto;html=1;exitX=0.5;exitY=1;exitDx=0;exitDy=0;entryX=0.5;entryY=0;entryDx=0;entryDy=0;dashed=1;dashPattern=1 1;fontFamily=Courier New;fontSize=12;fontColor=#ffffff;startArrow=none;startFill=0;endArrow=block;endFill=1;strokeColor=#1FB3E0;strokeWidth=3;fillColor=#1ba1e2;align=center;" edge="1" parent="1" source="225" target="251">
                    <mxGeometry relative="1" as="geometry"/>
                </mxCell>
                <mxCell id="257" value="False" style="edgeStyle=orthogonalEdgeStyle;rounded=0;jumpStyle=gap;jumpSize=20;orthogonalLoop=1;jettySize=auto;html=1;exitX=0;exitY=0.5;exitDx=0;exitDy=0;fontFamily=Courier New;fontSize=12;fontColor=#ffffff;startArrow=none;startFill=0;endArrow=block;endFill=1;strokeColor=#1FB3E0;strokeWidth=3;fillColor=#1ba1e2;align=center;entryX=1;entryY=0.5;entryDx=0;entryDy=0;" edge="1" parent="1" source="225" target="259">
                    <mxGeometry x="-0.7469" relative="1" as="geometry">
                        <mxPoint x="-700.3299999999999" y="2680" as="targetPoint"/>
                        <Array as="points">
                            <mxPoint x="-570.3299999999999" y="2555"/>
                            <mxPoint x="-570.3299999999999" y="2590"/>
                            <mxPoint x="-620.3299999999999" y="2590"/>
                            <mxPoint x="-620.3299999999999" y="2620"/>
                            <mxPoint x="-700.3299999999999" y="2620"/>
                            <mxPoint x="-700.3299999999999" y="2725"/>
                        </Array>
                        <mxPoint x="-1" as="offset"/>
                    </mxGeometry>
                </mxCell>
                <mxCell id="225" value="User input:&lt;br&gt;confirm" style="shape=parallelogram;perimeter=parallelogramPerimeter;whiteSpace=wrap;html=1;fixedSize=1;rounded=0;fontFamily=Courier New;fontSize=12;fontColor=#ffffff;strokeWidth=0;fillColor=#6a00ff;" vertex="1" parent="1">
                    <mxGeometry x="-440.33" y="2530" width="120" height="50" as="geometry"/>
                </mxCell>
                <mxCell id="226" style="edgeStyle=orthogonalEdgeStyle;rounded=0;jumpStyle=gap;jumpSize=20;orthogonalLoop=1;jettySize=auto;html=1;exitX=1;exitY=0.5;exitDx=0;exitDy=0;entryX=1;entryY=0;entryDx=0;entryDy=0;dashed=1;fontFamily=Courier New;fontSize=12;fontColor=#ffffff;startArrow=none;startFill=0;endArrow=block;endFill=1;strokeColor=#1FB3E0;strokeWidth=3;fillColor=#1ba1e2;align=center;" edge="1" parent="1" source="124" target="225">
                    <mxGeometry relative="1" as="geometry"/>
                </mxCell>
                <mxCell id="227" style="edgeStyle=orthogonalEdgeStyle;rounded=0;jumpStyle=gap;jumpSize=20;orthogonalLoop=1;jettySize=auto;html=1;exitX=1;exitY=0.5;exitDx=0;exitDy=0;entryX=0.75;entryY=0;entryDx=0;entryDy=0;dashed=1;fontFamily=Courier New;fontSize=12;fontColor=#ffffff;startArrow=none;startFill=0;endArrow=block;endFill=1;strokeColor=#1FB3E0;strokeWidth=3;fillColor=#1ba1e2;align=center;dashPattern=1 1;" edge="1" parent="1" source="85" target="225">
                    <mxGeometry relative="1" as="geometry"/>
                </mxCell>
                <mxCell id="228" style="edgeStyle=orthogonalEdgeStyle;rounded=0;jumpStyle=gap;jumpSize=20;orthogonalLoop=1;jettySize=auto;html=1;exitX=1;exitY=0.5;exitDx=0;exitDy=0;entryX=0.5;entryY=0;entryDx=0;entryDy=0;dashed=1;dashPattern=1 2;fontFamily=Courier New;fontSize=12;fontColor=#ffffff;startArrow=none;startFill=0;endArrow=block;endFill=1;strokeColor=#1FB3E0;strokeWidth=3;fillColor=#1ba1e2;align=center;" edge="1" parent="1" source="86" target="225">
                    <mxGeometry relative="1" as="geometry"/>
                </mxCell>
                <mxCell id="229" style="edgeStyle=orthogonalEdgeStyle;rounded=0;jumpStyle=gap;jumpSize=20;orthogonalLoop=1;jettySize=auto;html=1;exitX=1;exitY=0.5;exitDx=0;exitDy=0;entryX=0.25;entryY=0;entryDx=0;entryDy=0;dashed=1;dashPattern=1 4;fontFamily=Courier New;fontSize=12;fontColor=#ffffff;startArrow=none;startFill=0;endArrow=block;endFill=1;strokeColor=#1FB3E0;strokeWidth=3;fillColor=#1ba1e2;align=center;" edge="1" parent="1" source="87" target="225">
                    <mxGeometry relative="1" as="geometry"/>
                </mxCell>
                <mxCell id="239" style="edgeStyle=orthogonalEdgeStyle;rounded=0;jumpStyle=gap;jumpSize=20;orthogonalLoop=1;jettySize=auto;html=1;exitX=0.5;exitY=1;exitDx=0;exitDy=0;entryX=0.5;entryY=0;entryDx=0;entryDy=0;dashed=1;fontFamily=Courier New;fontSize=12;fontColor=#ffffff;startArrow=none;startFill=0;endArrow=block;endFill=1;strokeColor=#1FB3E0;strokeWidth=3;fillColor=#1ba1e2;align=center;" edge="1" parent="1" source="231" target="240">
                    <mxGeometry relative="1" as="geometry"/>
                </mxCell>
                <mxCell id="231" value="Print:&lt;br&gt;score" style="shape=parallelogram;perimeter=parallelogramPerimeter;whiteSpace=wrap;html=1;fixedSize=1;rounded=0;fontFamily=Courier New;fontSize=12;fontColor=#ffffff;strokeWidth=0;fillColor=#3B008F;" vertex="1" parent="1">
                    <mxGeometry x="-320.33" y="2700" width="120" height="50" as="geometry"/>
                </mxCell>
                <mxCell id="233" value="" style="ellipse;whiteSpace=wrap;html=1;aspect=fixed;rounded=0;shadow=0;glass=0;sketch=0;fontFamily=Courier New;fontSize=12;fontColor=#ffffff;strokeColor=#00CCCC;strokeWidth=2;fillColor=#6a00ff;align=center;" vertex="1" parent="1">
                    <mxGeometry x="-6.329999999999984" y="2830" width="20" height="20" as="geometry"/>
                </mxCell>
                <mxCell id="234" value="" style="ellipse;whiteSpace=wrap;html=1;aspect=fixed;rounded=0;shadow=0;glass=0;sketch=0;fontFamily=Courier New;fontSize=12;fontColor=#ffffff;strokeColor=#00CCCC;strokeWidth=2;fillColor=#6a00ff;align=center;" vertex="1" parent="1">
                    <mxGeometry x="-26.329999999999984" y="2770" width="20" height="20" as="geometry"/>
                </mxCell>
                <mxCell id="241" value="True" style="edgeStyle=orthogonalEdgeStyle;rounded=0;jumpStyle=gap;jumpSize=20;orthogonalLoop=1;jettySize=auto;html=1;exitX=1;exitY=0.5;exitDx=0;exitDy=0;entryX=0;entryY=0.5;entryDx=0;entryDy=0;dashed=1;fontFamily=Courier New;fontSize=12;fontColor=#ffffff;startArrow=none;startFill=0;endArrow=block;endFill=1;strokeColor=#1FB3E0;strokeWidth=3;fillColor=#1ba1e2;align=center;" edge="1" parent="1" source="240" target="233">
                    <mxGeometry relative="1" as="geometry"/>
                </mxCell>
                <mxCell id="244" style="edgeStyle=orthogonalEdgeStyle;rounded=0;jumpStyle=gap;jumpSize=20;orthogonalLoop=1;jettySize=auto;html=1;exitX=0;exitY=0.5;exitDx=0;exitDy=0;entryX=0;entryY=0.5;entryDx=0;entryDy=0;fontFamily=Courier New;fontSize=12;fontColor=#ffffff;startArrow=none;startFill=0;endArrow=block;endFill=1;strokeColor=#1FB3E0;strokeWidth=3;fillColor=#1ba1e2;align=center;" edge="1" parent="1" source="240" target="234">
                    <mxGeometry relative="1" as="geometry"/>
                </mxCell>
                <mxCell id="245" value="ALL" style="edgeLabel;html=1;align=center;verticalAlign=middle;resizable=0;points=[];fontFamily=Courier New;fontColor=#ffffff;" vertex="1" connectable="0" parent="244">
                    <mxGeometry x="0.0848" y="2" relative="1" as="geometry">
                        <mxPoint as="offset"/>
                    </mxGeometry>
                </mxCell>
                <mxCell id="246" value="True/False" style="edgeLabel;html=1;align=center;verticalAlign=middle;resizable=0;points=[];fontFamily=Courier New;fontColor=#ffffff;" vertex="1" connectable="0" parent="244">
                    <mxGeometry x="0.0951" y="1" relative="1" as="geometry">
                        <mxPoint as="offset"/>
                    </mxGeometry>
                </mxCell>
                <mxCell id="240" value="high score?" style="rhombus;whiteSpace=wrap;html=1;rounded=0;fontColor=#ffffff;fillColor=#6a00ff;strokeColor=none;fontFamily=Courier New;fontSize=12;" vertex="1" parent="1">
                    <mxGeometry x="-315.33" y="2810" width="110" height="60" as="geometry"/>
                </mxCell>
                <mxCell id="253" style="edgeStyle=orthogonalEdgeStyle;rounded=0;jumpStyle=gap;jumpSize=20;orthogonalLoop=1;jettySize=auto;html=1;exitX=0.75;exitY=1;exitDx=0;exitDy=0;entryX=0.5;entryY=0;entryDx=0;entryDy=0;dashed=1;dashPattern=1 2;fontFamily=Courier New;fontSize=12;fontColor=#ffffff;startArrow=none;startFill=0;endArrow=block;endFill=1;strokeColor=#1FB3E0;strokeWidth=3;fillColor=#1ba1e2;align=center;" edge="1" parent="1" source="247" target="250">
                    <mxGeometry relative="1" as="geometry"/>
                </mxCell>
                <mxCell id="254" style="edgeStyle=orthogonalEdgeStyle;rounded=0;jumpStyle=gap;jumpSize=20;orthogonalLoop=1;jettySize=auto;html=1;exitX=0.25;exitY=1;exitDx=0;exitDy=0;entryX=0.5;entryY=0;entryDx=0;entryDy=0;dashed=1;dashPattern=1 4;fontFamily=Courier New;fontSize=12;fontColor=#ffffff;startArrow=none;startFill=0;endArrow=block;endFill=1;strokeColor=#1FB3E0;strokeWidth=3;fillColor=#1ba1e2;align=center;" edge="1" parent="1" source="247" target="252">
                    <mxGeometry relative="1" as="geometry"/>
                </mxCell>
                <mxCell id="247" value="&lt;font face=&quot;Courier New&quot;&gt;Check q number and weight response toward correct answer. Higher q number = lower chance of correct answer&lt;/font&gt;" style="rounded=0;whiteSpace=wrap;html=1;verticalAlign=middle;fillColor=#6a00ff;fontColor=#ffffff;strokeColor=none;fontSize=12;" vertex="1" parent="1">
                    <mxGeometry x="-620.3299999999999" y="2630" width="120" height="130" as="geometry"/>
                </mxCell>
                <mxCell id="264" style="edgeStyle=orthogonalEdgeStyle;rounded=0;jumpStyle=gap;jumpSize=10;orthogonalLoop=1;jettySize=auto;html=1;exitX=0.5;exitY=1;exitDx=0;exitDy=0;entryX=1;entryY=1;entryDx=0;entryDy=0;dashed=1;dashPattern=1 2;fontFamily=Courier New;fontSize=12;fontColor=#ffffff;startArrow=none;startFill=0;endArrow=block;endFill=1;strokeColor=#1FB3E0;strokeWidth=3;fillColor=#1ba1e2;align=center;" edge="1" parent="1" source="250" target="259">
                    <mxGeometry relative="1" as="geometry">
                        <Array as="points">
                            <mxPoint x="-490.33" y="2900"/>
                            <mxPoint x="-763.3299999999999" y="2900"/>
                        </Array>
                    </mxGeometry>
                </mxCell>
                <mxCell id="250" value="&lt;font face=&quot;Courier New&quot;&gt;Display 'audience' response&lt;/font&gt;" style="rounded=0;whiteSpace=wrap;html=1;verticalAlign=middle;fillColor=#6a00ff;fontColor=#ffffff;strokeColor=none;fontSize=12;" vertex="1" parent="1">
                    <mxGeometry x="-550.3299999999999" y="2810" width="120" height="60" as="geometry"/>
                </mxCell>
                <mxCell id="256" style="edgeStyle=orthogonalEdgeStyle;rounded=0;jumpStyle=gap;jumpSize=20;orthogonalLoop=1;jettySize=auto;html=1;exitX=0.5;exitY=0;exitDx=0;exitDy=0;entryX=0.25;entryY=0;entryDx=0;entryDy=0;dashed=1;dashPattern=1 1;fontFamily=Courier New;fontSize=12;fontColor=#ffffff;startArrow=ERmany;startFill=0;endArrow=block;endFill=1;strokeColor=#1FB3E0;strokeWidth=3;fillColor=#1ba1e2;align=center;" edge="1" parent="1" source="259" target="223">
                    <mxGeometry relative="1" as="geometry">
                        <Array as="points">
                            <mxPoint x="-770.3299999999999" y="2715"/>
                            <mxPoint x="-770.3299999999999" y="1490"/>
                            <mxPoint x="-385.33" y="1490"/>
                        </Array>
                    </mxGeometry>
                </mxCell>
                <mxCell id="261" style="edgeStyle=orthogonalEdgeStyle;rounded=0;jumpStyle=gap;jumpSize=20;orthogonalLoop=1;jettySize=auto;html=1;exitX=0.5;exitY=1;exitDx=0;exitDy=0;entryX=0;entryY=0.5;entryDx=0;entryDy=0;fontFamily=Courier New;fontSize=12;fontColor=#ffffff;startArrow=none;startFill=0;endArrow=block;endFill=1;strokeColor=#1FB3E0;strokeWidth=3;fillColor=#1ba1e2;align=center;dashed=1;dashPattern=1 1;" edge="1" parent="1" source="251" target="259">
                    <mxGeometry relative="1" as="geometry">
                        <Array as="points">
                            <mxPoint x="-400.33" y="2920"/>
                            <mxPoint x="-800.3299999999999" y="2920"/>
                            <mxPoint x="-800.3299999999999" y="2725"/>
                        </Array>
                    </mxGeometry>
                </mxCell>
                <mxCell id="251" value="&lt;font face=&quot;Courier New&quot;&gt;Remove two incorrect answers&lt;/font&gt;" style="rounded=0;whiteSpace=wrap;html=1;verticalAlign=middle;fillColor=#6a00ff;fontColor=#ffffff;strokeColor=none;fontSize=12;" vertex="1" parent="1">
                    <mxGeometry x="-460.33" y="2690" width="120" height="60" as="geometry"/>
                </mxCell>
                <mxCell id="263" style="edgeStyle=orthogonalEdgeStyle;rounded=0;jumpStyle=gap;jumpSize=10;orthogonalLoop=1;jettySize=auto;html=1;exitX=0.5;exitY=1;exitDx=0;exitDy=0;entryX=0;entryY=1;entryDx=0;entryDy=0;dashed=1;dashPattern=1 4;fontFamily=Courier New;fontSize=12;fontColor=#ffffff;startArrow=none;startFill=0;endArrow=block;endFill=1;strokeColor=#1FB3E0;strokeWidth=3;fillColor=#1ba1e2;align=center;" edge="1" parent="1" source="252" target="259">
                    <mxGeometry relative="1" as="geometry"/>
                </mxCell>
                <mxCell id="252" value="&lt;font face=&quot;Courier New&quot;&gt;Display 'friend' response&lt;/font&gt;" style="rounded=0;whiteSpace=wrap;html=1;verticalAlign=middle;fillColor=#6a00ff;fontColor=#ffffff;strokeColor=none;fontSize=12;" vertex="1" parent="1">
                    <mxGeometry x="-690.3299999999999" y="2810" width="120" height="60" as="geometry"/>
                </mxCell>
                <mxCell id="259" value="" style="ellipse;whiteSpace=wrap;html=1;aspect=fixed;rounded=0;shadow=0;glass=0;sketch=0;fontFamily=Courier New;fontSize=12;fontColor=#ffffff;strokeColor=#00CCCC;strokeWidth=2;fillColor=#6a00ff;align=center;" vertex="1" parent="1">
                    <mxGeometry x="-780.3299999999999" y="2715" width="20" height="20" as="geometry"/>
                </mxCell>
                <mxCell id="262" style="edgeStyle=orthogonalEdgeStyle;rounded=0;jumpStyle=gap;jumpSize=20;orthogonalLoop=1;jettySize=auto;html=1;exitX=1;exitY=0.5;exitDx=0;exitDy=0;entryX=1;entryY=0.5;entryDx=0;entryDy=0;dashed=1;dashPattern=1 1;fontFamily=Courier New;fontSize=12;fontColor=#ffffff;startArrow=none;startFill=0;endArrow=block;endFill=1;strokeColor=#1FB3E0;strokeWidth=3;fillColor=#1ba1e2;align=center;" edge="1" parent="1" source="72" target="90">
                    <mxGeometry relative="1" as="geometry">
                        <Array as="points">
                            <mxPoint x="29.670000000000016" y="1470"/>
                            <mxPoint x="29.670000000000016" y="1665"/>
                        </Array>
                    </mxGeometry>
                </mxCell>
                <mxCell id="153" style="edgeStyle=orthogonalEdgeStyle;rounded=0;jumpStyle=gap;orthogonalLoop=1;jettySize=auto;html=1;exitX=0;exitY=0.5;exitDx=0;exitDy=0;entryX=0.25;entryY=0;entryDx=0;entryDy=0;fontFamily=Courier New;fontSize=12;fontColor=#ffffff;startArrow=diamond;startFill=1;endArrow=diamond;endFill=1;strokeColor=#1FB3E0;strokeWidth=3;fillColor=#1ba1e2;align=center;jumpSize=10;" edge="1" parent="1" source="151" target="92">
                    <mxGeometry relative="1" as="geometry">
                        <Array as="points">
                            <mxPoint x="-20.329999999999984" y="2230"/>
                            <mxPoint x="-20.329999999999984" y="1570"/>
                            <mxPoint x="174.67000000000002" y="1570"/>
                        </Array>
                    </mxGeometry>
                </mxCell>
                <mxCell id="116" style="edgeStyle=orthogonalEdgeStyle;rounded=0;orthogonalLoop=1;jettySize=auto;html=1;exitX=1;exitY=0.5;exitDx=0;exitDy=0;entryX=0.5;entryY=0;entryDx=0;entryDy=0;fontFamily=Courier New;fontSize=12;fontColor=#ffffff;startArrow=diamond;startFill=1;endArrow=diamond;endFill=1;strokeColor=#1FB3E0;strokeWidth=3;fillColor=#1ba1e2;align=center;jumpSize=10;jumpStyle=gap;" edge="1" parent="1" source="115" target="92">
                    <mxGeometry relative="1" as="geometry"/>
                </mxCell>
                <mxCell id="267" value="True" style="edgeStyle=orthogonalEdgeStyle;rounded=0;jumpStyle=gap;jumpSize=10;orthogonalLoop=1;jettySize=auto;html=1;exitX=0;exitY=0.5;exitDx=0;exitDy=0;entryX=1;entryY=0.5;entryDx=0;entryDy=0;fontFamily=Courier New;fontSize=12;fontColor=#ffffff;startArrow=none;startFill=0;endArrow=block;endFill=1;strokeColor=#1FB3E0;strokeWidth=3;fillColor=#1ba1e2;align=center;" edge="1" parent="1" source="266" target="68">
                    <mxGeometry relative="1" as="geometry"/>
                </mxCell>
                <mxCell id="268" value="False" style="edgeStyle=orthogonalEdgeStyle;rounded=0;jumpStyle=gap;jumpSize=10;orthogonalLoop=1;jettySize=auto;html=1;exitX=1;exitY=0.5;exitDx=0;exitDy=0;entryX=1;entryY=0.5;entryDx=0;entryDy=0;fontFamily=Courier New;fontSize=12;fontColor=#ffffff;startArrow=none;startFill=0;endArrow=block;endFill=1;strokeColor=#1FB3E0;strokeWidth=3;fillColor=#1ba1e2;align=center;dashed=1;" edge="1" parent="1" source="266" target="3">
                    <mxGeometry x="-0.81" relative="1" as="geometry">
                        <Array as="points">
                            <mxPoint x="369.67" y="1180"/>
                            <mxPoint x="369.67" y="190"/>
                        </Array>
                        <mxPoint y="-1" as="offset"/>
                    </mxGeometry>
                </mxCell>
                <mxCell id="266" value="Validate&lt;br&gt;token" style="rhombus;whiteSpace=wrap;html=1;rounded=0;fontColor=#ffffff;fillColor=#6a00ff;strokeColor=none;fontFamily=Courier New;fontSize=12;" vertex="1" parent="1">
                    <mxGeometry x="164.67000000000002" y="1150" width="110" height="60" as="geometry"/>
                </mxCell>
                <mxCell id="271" value="&lt;font face=&quot;Courier New&quot; style=&quot;font-size: 12px&quot;&gt;Terminate&lt;/font&gt;" style="rounded=1;whiteSpace=wrap;html=1;fillColor=#a20025;fontColor=#ffffff;arcSize=40;strokeColor=#6F0000;horizontal=1;verticalAlign=middle;labelPosition=center;verticalLabelPosition=middle;align=center;fontSize=12;fontFamily=Courier New;" vertex="1" parent="1">
                    <mxGeometry x="-191.32999999999998" y="3020" width="120" height="40" as="geometry"/>
                </mxCell>
                <mxCell id="274" style="edgeStyle=orthogonalEdgeStyle;rounded=0;jumpStyle=gap;jumpSize=10;orthogonalLoop=1;jettySize=auto;html=1;exitX=0.5;exitY=1;exitDx=0;exitDy=0;entryX=0.5;entryY=0;entryDx=0;entryDy=0;fontFamily=Courier New;fontSize=12;fontColor=#ffffff;startArrow=none;startFill=0;endArrow=block;endFill=1;strokeColor=#1FB3E0;strokeWidth=3;fillColor=#1ba1e2;align=center;" edge="1" parent="1" source="273" target="271">
                    <mxGeometry relative="1" as="geometry"/>
                </mxCell>
                <mxCell id="273" value="Print:&lt;br&gt;thanks for playing" style="shape=parallelogram;perimeter=parallelogramPerimeter;whiteSpace=wrap;html=1;fixedSize=1;rounded=0;fontFamily=Courier New;fontSize=12;fontColor=#ffffff;strokeWidth=0;fillColor=#3B008F;" vertex="1" parent="1">
                    <mxGeometry x="29.670000000000016" y="2920" width="120" height="50" as="geometry"/>
                </mxCell>
            </root>
        </mxGraphModel>
    </diagram>
</mxfile>